ply
format ascii 1.0
comment Created by Blender 2.80 (sub 75) - www.blender.org, source file: 'briefcase1.blend'
element vertex 124
property float x
property float y
property float z
property float nx
property float ny
property float nz
property float s
property float t
element face 72
property list uchar uint vertex_indices
end_header
-1.182806 -0.996091 0.299193 0.000000 -1.000000 -0.000000 0.375000 1.000000
-1.182387 -0.996091 2.448776 0.000000 -1.000000 -0.000000 0.625000 1.000000
-1.187778 -0.996091 2.448781 0.000000 -1.000000 -0.000000 0.625000 1.000000
-1.188193 -0.996091 0.298591 0.000000 -1.000000 0.000000 0.375000 1.000000
-1.182806 1.969666 0.299193 0.000000 1.000000 0.000000 0.375000 0.250000
-1.182387 1.969666 2.448776 0.000000 1.000000 0.000000 0.625000 0.250000
-1.106937 1.969666 2.448711 0.000000 1.000000 0.000000 0.625000 0.500000
-1.107356 1.969666 0.299128 0.000000 1.000000 -0.000000 0.375000 0.500000
-1.107356 1.969666 0.299128 1.000000 0.000000 -0.000195 0.375000 0.500000
-1.106937 1.969666 2.448711 1.000000 0.000000 -0.000195 0.625000 0.500000
-1.106937 -0.996091 2.448711 1.000000 0.000000 -0.000195 0.625000 0.750000
-1.107356 -0.996091 0.299128 1.000000 0.000000 -0.000195 0.375000 0.750000
-1.107356 -0.996091 0.299128 0.000000 -1.000000 -0.000000 0.375000 0.750000
-1.106937 -0.996091 2.448711 0.000000 -1.000000 -0.000000 0.625000 0.750000
-1.182806 1.969666 0.299193 -0.000864 0.000000 -1.000000 0.125000 0.500000
-1.107356 1.969666 0.299128 -0.000864 0.000000 -1.000000 0.375000 0.500000
-1.107356 -0.996091 0.299128 -0.000864 0.000000 -1.000000 0.375000 0.750000
-1.182806 -0.996091 0.299193 -0.000864 0.000000 -1.000000 0.125000 0.750000
-1.106937 1.969666 2.448711 0.000866 -0.000000 1.000000 0.625000 0.500000
-1.182387 1.969666 2.448776 0.000866 -0.000000 1.000000 0.875000 0.500000
-1.182387 -0.996091 2.448776 0.000866 -0.000000 1.000000 0.875000 0.750000
-1.106937 -0.996091 2.448711 0.000866 0.000000 1.000000 0.625000 0.750000
-1.188193 1.969666 0.298591 0.000000 1.000000 0.000000 0.375000 0.250000
-1.187778 1.969666 2.448781 -0.000000 1.000000 0.000000 0.625000 0.250000
-1.182387 -0.996091 2.448776 0.000840 0.000000 1.000000 0.875000 0.750000
-1.182387 1.969666 2.448776 0.000840 0.000000 1.000000 0.875000 0.500000
-1.187778 1.969666 2.448781 0.000840 0.000000 1.000000 0.875000 0.500000
-1.187778 -0.996091 2.448781 0.000840 -0.000000 1.000000 0.875000 0.750000
-1.261710 -0.922510 0.372236 -1.000000 0.000000 0.000143 0.384198 0.006203
-1.261423 -0.922510 2.375263 -1.000000 0.000000 0.000143 0.615802 0.006203
-1.261423 1.896086 2.375263 -1.000000 0.000000 0.000143 0.615802 0.243797
-1.261710 1.896086 0.372236 -1.000000 0.000000 0.000143 0.384198 0.243797
-1.188193 1.969666 0.298591 -0.707718 0.000000 -0.706495 0.125000 0.500000
-1.188193 -0.996091 0.298591 -0.707718 0.000000 -0.706495 0.125000 0.750000
-1.261710 -0.922510 0.372236 -0.707718 0.000000 -0.706495 0.125000 0.743797
-1.261710 1.896086 0.372236 -0.707718 -0.000000 -0.706495 0.125000 0.506203
-1.188193 -0.996091 0.298591 -0.706870 -0.707344 0.000136 0.375000 1.000000
-1.187778 -0.996091 2.448781 -0.706870 -0.707344 0.000136 0.625000 1.000000
-1.261423 -0.922510 2.375263 -0.706870 -0.707344 0.000136 0.615802 1.000000
-1.188193 -0.996091 0.298591 -0.707362 -0.706851 0.000101 0.375000 1.000000
-1.261423 -0.922510 2.375263 -0.707362 -0.706851 0.000101 0.615802 1.000000
-1.261710 -0.922510 0.372236 -0.707362 -0.706851 0.000101 0.384198 1.000000
-1.187778 -0.996091 2.448781 -0.706495 0.000000 0.707718 0.875000 0.750000
-1.187778 1.969666 2.448781 -0.706495 0.000000 0.707718 0.875000 0.500000
-1.261423 1.896086 2.375263 -0.706495 0.000000 0.707718 0.875000 0.506203
-1.261423 -0.922510 2.375263 -0.706495 0.000000 0.707718 0.875000 0.743797
-1.187778 1.969666 2.448781 -0.707345 0.706869 0.000136 0.625000 0.250000
-1.188193 1.969666 0.298591 -0.707345 0.706869 0.000136 0.375000 0.250000
-1.261710 1.896086 0.372236 -0.707345 0.706869 0.000136 0.384198 0.243797
-1.187778 1.969666 2.448781 -0.706852 0.707361 0.000101 0.625000 0.250000
-1.261710 1.896086 0.372236 -0.706852 0.707361 0.000101 0.384198 0.243797
-1.261423 1.896086 2.375263 -0.706852 0.707361 0.000101 0.615802 0.243797
-1.182806 1.969666 0.299193 0.111139 0.000000 -0.993805 0.125000 0.500000
-1.182806 -0.996091 0.299193 0.111139 0.000000 -0.993805 0.125000 0.750000
-1.188193 -0.996091 0.298591 0.111139 0.000000 -0.993805 0.125000 0.750000
-1.188193 1.969666 0.298591 0.111139 0.000000 -0.993805 0.125000 0.500000
-1.185321 -0.023107 2.397971 -1.000000 0.000000 0.000865 0.375000 0.000000
-1.185137 -0.023107 2.610582 -1.000000 0.000000 0.000865 0.625000 0.000000
-1.185137 0.041097 2.610582 -1.000000 0.000000 0.000865 0.625000 0.250000
-1.185321 0.041097 2.397971 -1.000000 0.000000 0.000865 0.375000 0.250000
-1.185321 0.041097 2.397971 0.000000 1.000000 0.000000 0.375000 0.250000
-1.185137 0.041097 2.610582 0.000000 1.000000 0.000000 0.625000 0.250000
-1.111213 0.041097 2.610518 0.000000 1.000000 0.000000 0.625000 0.500000
-1.111397 0.041097 2.397907 0.000000 1.000000 -0.000000 0.375000 0.500000
-1.111397 0.041097 2.397907 1.000000 0.000000 -0.000865 0.375000 0.500000
-1.111213 0.041097 2.610518 1.000000 0.000000 -0.000865 0.625000 0.500000
-1.111213 -0.023107 2.610518 1.000000 0.000000 -0.000865 0.625000 0.750000
-1.111397 -0.023107 2.397907 1.000000 0.000000 -0.000865 0.375000 0.750000
-1.111397 -0.023107 2.397907 0.000000 -1.000000 -0.000000 0.375000 0.750000
-1.111213 -0.023107 2.610518 0.000000 -1.000000 -0.000000 0.625000 0.750000
-1.185137 -0.023107 2.610582 0.000000 -1.000000 -0.000000 0.625000 1.000000
-1.185321 -0.023107 2.397971 0.000000 -1.000000 0.000000 0.375000 1.000000
-1.185321 0.041097 2.397971 -0.000864 0.000000 -1.000000 0.125000 0.500000
-1.111397 0.041097 2.397907 -0.000864 0.000000 -1.000000 0.375000 0.500000
-1.111397 -0.023107 2.397907 -0.000864 0.000000 -1.000000 0.375000 0.750000
-1.185321 -0.023107 2.397971 -0.000864 0.000000 -1.000000 0.125000 0.750000
-1.111213 -0.023107 2.610518 1.000000 0.000000 -0.000864 0.625000 0.750000
-1.111213 0.041097 2.610518 1.000000 0.000000 -0.000864 0.625000 0.500000
-1.111178 0.041097 2.650273 1.000000 0.000000 -0.000864 0.625000 0.500000
-1.111178 -0.023107 2.650273 1.000000 0.000000 -0.000864 0.625000 0.750000
-1.111178 0.041097 2.650273 0.000864 -0.000000 1.000000 0.625000 0.500000
-1.185102 0.041097 2.650337 0.000864 -0.000000 1.000000 0.875000 0.500000
-1.185102 -0.023107 2.650337 0.000864 -0.000000 1.000000 0.875000 0.750000
-1.111178 -0.023107 2.650273 0.000864 0.000000 1.000000 0.625000 0.750000
-1.185137 0.041097 2.610582 -1.000000 0.000000 0.000864 0.625000 0.250000
-1.185137 -0.023107 2.610582 -1.000000 0.000000 0.000864 0.625000 0.000000
-1.185102 -0.023107 2.650337 -1.000000 0.000000 0.000864 0.625000 0.000000
-1.185102 0.041097 2.650337 -1.000000 0.000000 0.000864 0.625000 0.250000
-1.111178 -0.023107 2.650273 -0.000000 -1.000000 0.000000 0.625000 0.750000
-1.185102 -0.023107 2.650337 0.000000 -1.000000 -0.000000 0.625000 1.000000
-1.185102 0.966011 2.650337 -1.000000 0.000000 0.000864 0.625000 0.250000
-1.185137 0.966011 2.610582 -1.000000 0.000000 0.000864 0.625000 0.250000
-1.185102 1.036527 2.650337 -1.000000 0.000000 0.000864 0.625000 0.250000
-1.185137 1.036527 2.610582 -1.000000 0.000000 0.000864 0.625000 0.250000
-1.111178 0.966011 2.650273 0.000864 0.000000 1.000000 0.625000 0.500000
-1.185102 0.966011 2.650337 0.000864 0.000000 1.000000 0.875000 0.500000
-1.111213 0.041097 2.610518 -0.000864 -0.000000 -1.000000 0.625000 0.500000
-1.185137 0.041097 2.610582 -0.000864 -0.000000 -1.000000 0.625000 0.250000
-1.185137 0.966011 2.610582 -0.000864 -0.000000 -1.000000 0.625000 0.250000
-1.111213 0.966011 2.610518 -0.000864 0.000000 -1.000000 0.625000 0.500000
-1.111213 0.966011 2.610518 1.000000 0.000000 -0.000864 0.625000 0.500000
-1.111178 0.966011 2.650273 1.000000 0.000000 -0.000864 0.625000 0.500000
-1.111213 1.036527 2.610518 0.000000 1.000000 0.000000 0.625000 0.500000
-1.185137 1.036527 2.610582 0.000000 1.000000 0.000000 0.625000 0.250000
-1.185102 1.036527 2.650337 0.000000 1.000000 0.000000 0.625000 0.250000
-1.111178 1.036527 2.650273 0.000000 1.000000 0.000000 0.625000 0.500000
-1.111178 1.036527 2.650273 0.000864 0.000000 1.000000 0.625000 0.500000
-1.185102 1.036527 2.650337 0.000864 0.000000 1.000000 0.875000 0.500000
-1.111213 1.036527 2.610518 1.000000 0.000000 -0.000864 0.625000 0.500000
-1.111178 1.036527 2.650273 1.000000 0.000000 -0.000864 0.625000 0.500000
-1.111359 1.036527 2.441326 0.000000 1.000000 -0.000000 0.625000 0.500000
-1.185283 1.036527 2.441390 -0.000000 1.000000 -0.000000 0.625000 0.250000
-1.111359 0.966011 2.441326 -0.000864 -0.000000 -1.000000 0.625000 0.500000
-1.185283 0.966011 2.441390 -0.000864 -0.000000 -1.000000 0.625000 0.250000
-1.185283 1.036527 2.441390 -0.000864 -0.000000 -1.000000 0.625000 0.250000
-1.111359 1.036527 2.441326 -0.000864 0.000000 -1.000000 0.625000 0.500000
-1.111359 0.966011 2.441326 1.000000 0.000000 -0.000864 0.625000 0.500000
-1.111359 1.036527 2.441326 1.000000 0.000000 -0.000864 0.625000 0.500000
-1.185283 1.036527 2.441390 -1.000000 0.000000 0.000864 0.625000 0.250000
-1.185283 0.966011 2.441390 -1.000000 0.000000 0.000864 0.625000 0.250000
-1.111213 0.966011 2.610518 0.000000 -1.000000 0.000000 0.625000 0.500000
-1.185137 0.966011 2.610582 0.000000 -1.000000 0.000000 0.625000 0.250000
-1.185283 0.966011 2.441390 0.000000 -1.000000 0.000000 0.625000 0.250000
-1.111359 0.966011 2.441326 0.000000 -1.000000 0.000000 0.625000 0.500000
3 0 1 2
3 0 2 3
3 4 5 6
3 4 6 7
3 8 9 10
3 8 10 11
3 12 13 1
3 12 1 0
3 14 15 16
3 14 16 17
3 18 19 20
3 18 20 21
3 5 4 22
3 5 22 23
3 24 25 26
3 24 26 27
3 28 29 30
3 28 30 31
3 32 33 34
3 32 34 35
3 36 37 38
3 39 40 41
3 42 43 44
3 42 44 45
3 46 47 48
3 49 50 51
3 52 53 54
3 52 54 55
3 56 57 58
3 56 58 59
3 60 61 62
3 60 62 63
3 64 65 66
3 64 66 67
3 68 69 70
3 68 70 71
3 72 73 74
3 72 74 75
3 76 77 78
3 76 78 79
3 80 81 82
3 80 82 83
3 84 85 86
3 84 86 87
3 70 69 88
3 70 88 89
3 84 87 90
3 84 90 91
3 91 90 92
3 91 92 93
3 81 80 94
3 81 94 95
3 96 97 98
3 96 98 99
3 78 77 100
3 78 100 101
3 102 103 104
3 102 104 105
3 95 94 106
3 95 106 107
3 101 100 108
3 101 108 109
3 103 102 110
3 103 110 111
3 112 113 114
3 112 114 115
3 108 100 116
3 108 116 117
3 91 93 118
3 91 118 119
3 120 121 122
3 120 122 123
