ply
format ascii 1.0
comment Created by Blender 2.80 (sub 75) - www.blender.org, source file: 'wirecutters1.blend'
element vertex 548
property float x
property float y
property float z
property float nx
property float ny
property float nz
property float s
property float t
element face 292
property list uchar uint vertex_indices
end_header
29.714539 17.523413 -0.992368 -0.916190 0.400744 0.000000 0.375000 0.000000
29.714539 17.523413 0.988337 -0.916190 0.400744 0.000000 0.625000 0.000000
30.516026 19.355793 0.988337 -0.916190 0.400744 0.000000 0.625000 0.250000
30.516026 19.355793 -0.992368 -0.916190 0.400744 0.000000 0.375000 0.250000
41.203339 18.476414 -0.992368 -0.255381 0.966840 0.000000 0.375000 0.492575
41.203339 18.476414 0.988337 -0.255381 0.966840 0.000000 0.625000 0.492575
41.526535 18.561783 0.988337 -0.255381 0.966840 0.000000 0.625000 0.500000
41.526535 18.561783 -0.992368 -0.255381 0.966840 0.000000 0.375000 0.500000
41.526535 18.561783 -0.992368 0.964208 0.265146 0.000000 0.375000 0.500000
41.526535 18.561783 0.988337 0.964208 0.265146 0.000000 0.625000 0.500000
41.539948 18.513008 0.988337 0.964208 0.265146 0.000000 0.625000 0.750000
41.526535 18.561783 -0.992368 0.964180 0.265247 0.000003 0.375000 0.500000
41.539948 18.513008 0.988337 0.964180 0.265247 0.000003 0.625000 0.750000
41.530674 18.546738 -0.992368 0.964180 0.265247 0.000003 0.375000 0.750000
30.034262 17.442688 -0.992368 -0.247434 -0.968905 -0.000452 0.375000 0.993536
30.033913 17.441853 0.988337 -0.247434 -0.968905 -0.000452 0.625000 0.993536
29.714539 17.523413 0.988337 -0.247434 -0.968905 -0.000452 0.625000 1.000000
30.034262 17.442688 -0.992368 -0.244801 -0.969573 0.000000 0.375000 0.993536
29.714539 17.523413 0.988337 -0.244801 -0.969573 0.000000 0.625000 1.000000
29.714539 17.523413 -0.992368 -0.244801 -0.969573 0.000000 0.375000 1.000000
41.203339 18.476414 -0.992368 -0.000000 0.000000 -1.000000 0.367575 0.500000
41.526535 18.561783 -0.992368 -0.000000 0.000000 -1.000000 0.375000 0.500000
41.530674 18.546738 -0.992368 -0.000000 0.000000 -1.000000 0.375000 0.750000
41.221645 18.404154 -0.992368 -0.000000 0.000000 -1.000000 0.367575 0.750000
30.783649 19.241528 0.988337 -0.000000 0.000000 1.000000 0.868536 0.500000
30.516026 19.355793 0.988337 -0.000000 0.000000 1.000000 0.875000 0.500000
29.714539 17.523413 0.988337 -0.000000 0.000000 1.000000 0.875000 0.750000
30.033913 17.441853 0.988337 0.000000 -0.000000 1.000000 0.868536 0.750000
41.526535 18.561783 0.988337 0.000000 -0.000000 1.000000 0.625000 0.500000
41.203339 18.476414 0.988337 0.000000 -0.000000 1.000000 0.632425 0.500000
41.229980 18.371252 0.988337 0.000000 -0.000000 1.000000 0.632425 0.750000
41.539948 18.513008 0.988337 0.000000 -0.000000 1.000000 0.625000 0.750000
40.899567 18.402500 0.988337 0.000000 -0.000000 1.000000 0.639370 0.500000
40.936516 18.244122 0.988337 0.000000 -0.000000 1.000000 0.639370 0.750000
40.594448 18.334343 0.988337 0.000000 -0.000000 1.000000 0.646314 0.500000
40.639706 18.122335 0.988337 0.000000 -0.000000 1.000000 0.646314 0.750000
40.288094 18.271967 0.988337 0.000000 -0.000000 1.000000 0.653259 0.500000
40.339638 18.005980 0.988337 0.000000 -0.000000 1.000000 0.653259 0.750000
39.980618 18.215393 0.988337 0.000000 -0.000000 1.000000 0.660203 0.500000
40.036419 17.895132 0.988337 0.000000 -0.000000 1.000000 0.660203 0.750000
39.672127 18.164644 0.988337 0.000000 -0.000000 1.000000 0.667147 0.500000
39.730145 17.789871 0.988337 0.000000 -0.000000 1.000000 0.667147 0.750000
39.362732 18.119736 0.988337 0.000000 -0.000000 1.000000 0.674092 0.500000
39.420925 17.690275 0.988337 0.000000 -0.000000 1.000000 0.674092 0.750000
39.052544 18.080685 0.988337 0.000000 -0.000000 1.000000 0.681036 0.500000
39.108860 17.596413 0.988337 0.000000 -0.000000 1.000000 0.681036 0.750000
38.741669 18.047506 0.988337 0.000000 -0.000000 1.000000 0.687981 0.500000
38.794060 17.508360 0.988337 0.000000 -0.000000 1.000000 0.687981 0.750000
38.430225 18.020212 0.988337 0.000000 -0.000000 1.000000 0.694925 0.500000
38.476631 17.426184 0.988337 0.000000 -0.000000 1.000000 0.694925 0.750000
38.118320 17.998810 0.988337 0.000000 -0.000000 1.000000 0.701870 0.500000
38.156681 17.349955 0.988337 0.000000 -0.000000 1.000000 0.701870 0.750000
37.806068 17.983309 0.988337 0.000000 -0.000000 1.000000 0.708814 0.500000
37.834328 17.279739 0.988337 0.000000 -0.000000 1.000000 0.708814 0.750000
37.493576 17.973713 0.988337 0.000000 -0.000000 1.000000 0.715758 0.500000
37.509682 17.215595 0.988337 0.000000 -0.000000 1.000000 0.715759 0.750000
37.180962 17.970030 0.988337 0.000000 -0.000000 1.000000 0.722703 0.500000
37.182854 17.157593 0.988337 0.000000 -0.000000 1.000000 0.722703 0.750000
36.868332 17.972256 0.988337 -0.000000 0.000000 1.000000 0.729647 0.500000
36.853966 17.105783 0.988337 -0.000000 0.000000 1.000000 0.729647 0.750000
36.555801 17.980392 0.988337 -0.000000 0.000000 1.000000 0.736592 0.500000
36.523132 17.060230 0.988337 -0.000000 0.000000 1.000000 0.736592 0.750000
36.243477 17.994436 0.988337 -0.000000 0.000000 1.000000 0.743536 0.500000
36.190475 17.020988 0.988337 -0.000000 0.000000 1.000000 0.743536 0.750000
35.931477 18.014383 0.988337 -0.000000 0.000000 1.000000 0.750481 0.500000
35.856113 16.988106 0.988337 -0.000000 0.000000 1.000000 0.750481 0.750000
35.619907 18.040224 0.988337 -0.000000 0.000000 1.000000 0.757425 0.500000
35.520172 16.961634 0.988337 -0.000000 0.000000 1.000000 0.757425 0.750000
35.308884 18.071953 0.988337 -0.000000 0.000000 1.000000 0.764370 0.500000
35.182770 16.941624 0.988337 -0.000000 0.000000 1.000000 0.764370 0.750000
34.998516 18.109554 0.988337 -0.000000 0.000000 1.000000 0.771314 0.500000
34.844032 16.928120 0.988337 -0.000000 0.000000 1.000000 0.771314 0.750000
34.688915 18.153019 0.988337 -0.000000 0.000000 1.000000 0.778258 0.500000
34.504086 16.921165 0.988337 -0.000000 0.000000 1.000000 0.778259 0.750000
34.380188 18.202330 0.988337 -0.000000 0.000000 1.000000 0.785203 0.500000
34.163059 16.920799 0.988337 -0.000000 0.000000 1.000000 0.785203 0.750000
34.072453 18.257467 0.988337 -0.000000 0.000000 1.000000 0.792147 0.500000
33.821075 16.927061 0.988337 -0.000000 0.000000 1.000000 0.792147 0.750000
33.765812 18.318413 0.988337 -0.000000 0.000000 1.000000 0.799092 0.500000
33.478271 16.939991 0.988337 -0.000000 0.000000 1.000000 0.799092 0.750000
33.460381 18.385145 0.988337 -0.000000 0.000000 1.000000 0.806036 0.500000
33.134769 16.959616 0.988337 -0.000000 0.000000 1.000000 0.806036 0.750000
33.156265 18.457642 0.988337 -0.000000 0.000000 1.000000 0.812981 0.500000
32.790707 16.985968 0.988337 -0.000000 0.000000 1.000000 0.812981 0.750000
32.853573 18.535873 0.988337 -0.000000 0.000000 1.000000 0.819925 0.500000
32.446213 17.019079 0.988337 -0.000000 0.000000 1.000000 0.819925 0.750000
32.552414 18.619816 0.988337 -0.000000 0.000000 1.000000 0.826870 0.500000
32.101418 17.058969 0.988337 -0.000000 0.000000 1.000000 0.826870 0.750000
32.252895 18.709435 0.988337 -0.000000 0.000000 1.000000 0.833814 0.500000
31.756458 17.105667 0.988337 -0.000000 0.000000 1.000000 0.833814 0.750000
31.955128 18.804703 0.988337 -0.000000 0.000000 1.000000 0.840758 0.500000
31.411467 17.159191 0.988337 -0.000000 0.000000 1.000000 0.840759 0.750000
31.659212 18.905582 0.988337 -0.000000 0.000000 1.000000 0.847703 0.500000
31.066582 17.219557 0.988337 -0.000000 0.000000 1.000000 0.847703 0.750000
31.365257 19.012039 0.988337 -0.000000 0.000000 1.000000 0.854647 0.500000
30.721937 17.286781 0.988337 -0.000000 0.000000 1.000000 0.854647 0.750000
31.073368 19.124035 0.988337 -0.000000 0.000000 1.000000 0.861592 0.500000
30.377668 17.360876 0.988337 -0.000000 0.000000 1.000000 0.861592 0.750000
30.516026 19.355793 -0.992368 0.000000 0.000000 -1.000000 0.125000 0.500000
30.783649 19.241528 -0.992368 0.000000 0.000000 -1.000000 0.131464 0.500000
30.034262 17.442688 -0.992368 0.000000 0.000000 -1.000000 0.131464 0.750000
29.714539 17.523413 -0.992368 0.000000 0.000000 -1.000000 0.125000 0.750000
31.073368 19.124035 -0.992368 0.000000 0.000000 -1.000000 0.138408 0.500000
30.378357 17.362621 -0.992368 0.000000 0.000000 -1.000000 0.138408 0.750000
31.365257 19.012039 -0.992368 0.000000 0.000000 -1.000000 0.145353 0.500000
30.722931 17.289450 -0.992368 0.000000 0.000000 -1.000000 0.145353 0.750000
31.659212 18.905582 -0.992368 0.000000 0.000000 -1.000000 0.152297 0.500000
31.067848 17.223162 -0.992368 0.000000 0.000000 -1.000000 0.152297 0.750000
31.955128 18.804703 -0.992368 0.000000 0.000000 -1.000000 0.159241 0.500000
31.412971 17.163740 -0.992368 0.000000 0.000000 -1.000000 0.159241 0.750000
32.252895 18.709435 -0.992368 0.000000 0.000000 -1.000000 0.166186 0.500000
31.758162 17.111174 -0.992368 0.000000 0.000000 -1.000000 0.166186 0.750000
32.552414 18.619816 -0.992368 0.000000 0.000000 -1.000000 0.173130 0.500000
32.103287 17.065439 -0.992368 0.000000 0.000000 -1.000000 0.173130 0.750000
32.853573 18.535873 -0.992368 0.000000 0.000000 -1.000000 0.180075 0.500000
32.448212 17.026520 -0.992368 0.000000 0.000000 -1.000000 0.180075 0.750000
33.156261 18.457642 -0.992368 0.000000 0.000000 -1.000000 0.187019 0.500000
32.792801 16.994390 -0.992368 0.000000 0.000000 -1.000000 0.187019 0.750000
33.460381 18.385147 -0.992368 0.000000 0.000000 -1.000000 0.193964 0.500000
33.136921 16.969023 -0.992368 0.000000 0.000000 -1.000000 0.193964 0.750000
33.765812 18.318413 -0.992368 0.000000 0.000000 -1.000000 0.200908 0.500000
33.480442 16.950388 -0.992368 0.000000 0.000000 -1.000000 0.200908 0.750000
34.072453 18.257467 -0.992368 0.000000 0.000000 -1.000000 0.207853 0.500000
33.823231 16.938454 -0.992368 0.000000 0.000000 -1.000000 0.207853 0.750000
34.380188 18.202330 -0.992368 0.000000 0.000000 -1.000000 0.214797 0.500000
34.165157 16.933187 -0.992368 0.000000 0.000000 -1.000000 0.214797 0.750000
34.688911 18.153019 -0.992368 0.000000 0.000000 -1.000000 0.221741 0.500000
34.506096 16.934551 -0.992368 0.000000 0.000000 -1.000000 0.221741 0.750000
34.998516 18.109554 -0.992368 0.000000 0.000000 -1.000000 0.228686 0.500000
34.845913 16.942505 -0.992368 0.000000 0.000000 -1.000000 0.228686 0.750000
35.308884 18.071953 -0.992368 0.000000 0.000000 -1.000000 0.235630 0.500000
35.184486 16.957008 -0.992368 0.000000 0.000000 -1.000000 0.235630 0.750000
35.619907 18.040224 -0.992368 0.000000 0.000000 -1.000000 0.242575 0.500000
35.521687 16.978016 -0.992368 0.000000 0.000000 -1.000000 0.242575 0.750000
35.931473 18.014383 -0.992368 0.000000 0.000000 -1.000000 0.249519 0.500000
35.857391 17.005482 -0.992368 0.000000 0.000000 -1.000000 0.249519 0.750000
36.243477 17.994436 -0.992368 0.000000 0.000000 -1.000000 0.256464 0.500000
36.191479 17.039356 -0.992368 0.000000 0.000000 -1.000000 0.256464 0.750000
36.555798 17.980392 -0.992368 0.000000 0.000000 -1.000000 0.263408 0.500000
36.523823 17.079586 -0.992368 0.000000 0.000000 -1.000000 0.263408 0.750000
36.868328 17.972256 -0.992368 0.000000 0.000000 -1.000000 0.270353 0.500000
36.854305 17.126120 -0.992368 0.000000 0.000000 -1.000000 0.270353 0.750000
37.180958 17.970030 -0.992368 0.000000 0.000000 -1.000000 0.277297 0.500000
37.182808 17.178902 -0.992368 0.000000 0.000000 -1.000000 0.277297 0.750000
37.493576 17.973713 -0.992368 -0.000000 0.000000 -1.000000 0.284241 0.500000
37.509209 17.237871 -0.992368 -0.000000 0.000000 -1.000000 0.284241 0.750000
37.806065 17.983309 -0.992368 -0.000000 0.000000 -1.000000 0.291186 0.500000
37.833397 17.302973 -0.992368 -0.000000 0.000000 -1.000000 0.291186 0.750000
38.118320 17.998810 -0.992368 -0.000000 0.000000 -1.000000 0.298130 0.500000
38.155254 17.374138 -0.992368 -0.000000 0.000000 -1.000000 0.298130 0.750000
38.430222 18.020212 -0.992368 -0.000000 0.000000 -1.000000 0.305075 0.500000
38.474670 17.451305 -0.992368 -0.000000 0.000000 -1.000000 0.305075 0.750000
38.741669 18.047506 -0.992368 -0.000000 0.000000 -1.000000 0.312019 0.500000
38.791531 17.534405 -0.992368 -0.000000 0.000000 -1.000000 0.312019 0.750000
39.052540 18.080685 -0.992368 -0.000000 0.000000 -1.000000 0.318964 0.500000
39.105728 17.623369 -0.992368 -0.000000 0.000000 -1.000000 0.318964 0.750000
39.362728 18.119736 -0.992368 -0.000000 0.000000 -1.000000 0.325908 0.500000
39.417152 17.718130 -0.992368 -0.000000 0.000000 -1.000000 0.325908 0.750000
39.672127 18.164644 -0.992368 -0.000000 0.000000 -1.000000 0.332853 0.500000
39.725697 17.818613 -0.992368 -0.000000 0.000000 -1.000000 0.332853 0.750000
39.980618 18.215393 -0.992368 -0.000000 0.000000 -1.000000 0.339797 0.500000
40.031258 17.924742 -0.992368 -0.000000 0.000000 -1.000000 0.339797 0.750000
40.288094 18.271967 -0.992368 -0.000000 0.000000 -1.000000 0.346741 0.500000
40.333736 18.036440 -0.992368 -0.000000 0.000000 -1.000000 0.346741 0.750000
40.594444 18.334343 -0.992368 -0.000000 0.000000 -1.000000 0.353686 0.500000
40.633026 18.153629 -0.992368 -0.000000 0.000000 -1.000000 0.353686 0.750000
40.899563 18.402500 -0.992368 -0.000000 0.000000 -1.000000 0.360630 0.500000
40.929028 18.276228 -0.992368 -0.000000 0.000000 -1.000000 0.360630 0.750000
41.530674 18.546738 -0.992368 0.415834 -0.909273 -0.017431 0.375000 0.750000
41.539948 18.513008 0.988337 0.415834 -0.909273 -0.017431 0.625000 0.750000
41.229980 18.371252 0.988337 0.415834 -0.909273 -0.017431 0.625000 0.757425
41.530674 18.546738 -0.992368 0.418890 -0.907881 -0.016844 0.375000 0.750000
41.229980 18.371252 0.988337 0.418890 -0.907881 -0.016844 0.625000 0.757425
41.221645 18.404154 -0.992368 0.418890 -0.907881 -0.016844 0.375000 0.757425
41.221645 18.404154 -0.992368 0.397452 -0.917467 -0.016913 0.375000 0.757425
41.229980 18.371252 0.988337 0.397452 -0.917467 -0.016913 0.625000 0.757425
40.936516 18.244122 0.988337 0.397452 -0.917467 -0.016913 0.625000 0.764370
41.221645 18.404154 -0.992368 0.400517 -0.916143 -0.016364 0.375000 0.757425
40.936516 18.244122 0.988337 0.400517 -0.916143 -0.016364 0.625000 0.764370
40.929028 18.276228 -0.992368 0.400517 -0.916143 -0.016364 0.375000 0.764370
40.929028 18.276228 -0.992368 0.379553 -0.925024 -0.016429 0.375000 0.764370
40.936516 18.244122 0.988337 0.379553 -0.925024 -0.016429 0.625000 0.764370
40.639706 18.122335 0.988337 0.379553 -0.925024 -0.016429 0.625000 0.771314
40.929028 18.276228 -0.992368 0.382611 -0.923773 -0.015885 0.375000 0.764370
40.639706 18.122335 0.988337 0.382611 -0.923773 -0.015885 0.625000 0.771314
40.633026 18.153629 -0.992368 0.382611 -0.923773 -0.015885 0.375000 0.771314
40.633026 18.153629 -0.992368 0.361490 -0.932240 -0.015948 0.375000 0.771314
40.639706 18.122335 0.988337 0.361490 -0.932240 -0.015948 0.625000 0.771314
40.339638 18.005980 0.988337 0.361490 -0.932240 -0.015948 0.625000 0.778259
40.633026 18.153629 -0.992368 0.364561 -0.931052 -0.015404 0.375000 0.771314
40.339638 18.005980 0.988337 0.364561 -0.931052 -0.015404 0.625000 0.778259
40.333736 18.036440 -0.992368 0.364561 -0.931052 -0.015404 0.375000 0.778259
40.333736 18.036440 -0.992368 0.343305 -0.939097 -0.015465 0.375000 0.778259
40.339638 18.005980 0.988337 0.343305 -0.939097 -0.015465 0.625000 0.778259
40.036419 17.895132 0.988337 0.343305 -0.939097 -0.015465 0.625000 0.785203
40.333736 18.036440 -0.992368 0.346373 -0.937978 -0.014924 0.375000 0.778259
40.036419 17.895132 0.988337 0.346373 -0.937978 -0.014924 0.625000 0.785203
40.031258 17.924742 -0.992368 0.346373 -0.937978 -0.014924 0.375000 0.785203
40.031258 17.924742 -0.992368 0.324985 -0.945600 -0.014983 0.375000 0.785203
40.036419 17.895132 0.988337 0.324985 -0.945600 -0.014983 0.625000 0.785203
39.730145 17.789871 0.988337 0.324985 -0.945600 -0.014983 0.625000 0.792147
40.031258 17.924742 -0.992368 0.328063 -0.944545 -0.014443 0.375000 0.785203
39.730145 17.789871 0.988337 0.328063 -0.944545 -0.014443 0.625000 0.792147
39.725697 17.818613 -0.992368 0.328063 -0.944545 -0.014443 0.375000 0.792147
39.725697 17.818613 -0.992368 0.306546 -0.951745 -0.014499 0.375000 0.792147
39.730145 17.789871 0.988337 0.306546 -0.951745 -0.014499 0.625000 0.792147
39.420925 17.690275 0.988337 0.306546 -0.951745 -0.014499 0.625000 0.799092
39.725697 17.818613 -0.992368 0.309630 -0.950755 -0.013960 0.375000 0.792147
39.420925 17.690275 0.988337 0.309630 -0.950755 -0.013960 0.625000 0.799092
39.417152 17.718130 -0.992368 0.309630 -0.950755 -0.013960 0.375000 0.799092
39.417152 17.718130 -0.992368 0.288004 -0.957527 -0.014014 0.375000 0.799092
39.420925 17.690275 0.988337 0.288004 -0.957527 -0.014014 0.625000 0.799092
39.108860 17.596413 0.988337 0.288004 -0.957527 -0.014014 0.625000 0.806036
39.417152 17.718130 -0.992368 0.291078 -0.956604 -0.013479 0.375000 0.799092
39.108860 17.596413 0.988337 0.291078 -0.956604 -0.013479 0.625000 0.806036
39.105728 17.623369 -0.992368 0.291078 -0.956604 -0.013479 0.375000 0.806036
39.105728 17.623369 -0.992368 0.269346 -0.962948 -0.013531 0.375000 0.806036
39.108860 17.596413 0.988337 0.269346 -0.962948 -0.013531 0.625000 0.806036
38.794060 17.508360 0.988337 0.269346 -0.962948 -0.013531 0.625000 0.812981
39.105728 17.623369 -0.992368 0.272415 -0.962092 -0.012999 0.375000 0.806036
38.794060 17.508360 0.988337 0.272415 -0.962092 -0.012999 0.625000 0.812981
38.791531 17.534405 -0.992368 0.272415 -0.962092 -0.012999 0.375000 0.812981
38.791531 17.534405 -0.992368 0.250598 -0.968003 -0.013049 0.375000 0.812981
38.794060 17.508360 0.988337 0.250598 -0.968003 -0.013049 0.625000 0.812981
38.476631 17.426184 0.988337 0.250598 -0.968003 -0.013049 0.625000 0.819925
38.791531 17.534405 -0.992368 0.253660 -0.967212 -0.012518 0.375000 0.812981
38.476631 17.426184 0.988337 0.253660 -0.967212 -0.012518 0.625000 0.819925
38.474670 17.451305 -0.992368 0.253660 -0.967212 -0.012518 0.375000 0.819925
38.474670 17.451305 -0.992368 0.231748 -0.972695 -0.012566 0.375000 0.819925
38.476631 17.426184 0.988337 0.231748 -0.972695 -0.012566 0.625000 0.819925
38.156681 17.349955 0.988337 0.231748 -0.972695 -0.012566 0.625000 0.826870
38.474670 17.451305 -0.992368 0.234816 -0.971965 -0.012036 0.375000 0.819925
38.156681 17.349955 0.988337 0.234816 -0.971965 -0.012036 0.625000 0.826870
38.155254 17.374138 -0.992368 0.234816 -0.971965 -0.012036 0.375000 0.826870
38.155254 17.374138 -0.992368 0.212815 -0.977018 -0.012082 0.375000 0.826870
38.156681 17.349955 0.988337 0.212815 -0.977018 -0.012082 0.625000 0.826870
37.834328 17.279739 0.988337 0.212815 -0.977018 -0.012082 0.625000 0.833814
38.155254 17.374138 -0.992368 0.215879 -0.976352 -0.011554 0.375000 0.826870
37.834328 17.279739 0.988337 0.215879 -0.976352 -0.011554 0.625000 0.833814
37.833397 17.302973 -0.992368 0.215879 -0.976352 -0.011554 0.375000 0.833814
37.833397 17.302973 -0.992368 0.193821 -0.980968 -0.011598 0.375000 0.833814
37.834328 17.279739 0.988337 0.193821 -0.980968 -0.011598 0.625000 0.833814
37.509682 17.215595 0.988337 0.193821 -0.980968 -0.011598 0.625000 0.840759
37.833397 17.302973 -0.992368 0.196872 -0.980367 -0.011073 0.375000 0.833814
37.509682 17.215595 0.988337 0.196872 -0.980367 -0.011073 0.625000 0.840759
37.509209 17.237871 -0.992368 0.196872 -0.980367 -0.011073 0.375000 0.840759
37.509209 17.237871 -0.992368 0.174730 -0.984554 -0.011114 0.375000 0.840759
37.509682 17.215595 0.988337 0.174730 -0.984554 -0.011114 0.625000 0.840759
37.182854 17.157593 0.988337 0.174730 -0.984554 -0.011114 0.625000 0.847703
37.509209 17.237871 -0.992368 0.177778 -0.984014 -0.010590 0.375000 0.840759
37.182854 17.157593 0.988337 0.177778 -0.984014 -0.010590 0.625000 0.847703
37.182808 17.178902 -0.992368 0.177778 -0.984014 -0.010590 0.375000 0.847703
37.182808 17.178902 -0.992368 0.155601 -0.987763 -0.010630 0.375000 0.847703
37.182854 17.157593 0.988337 0.155601 -0.987763 -0.010630 0.625000 0.847703
36.853966 17.105783 0.988337 0.155601 -0.987763 -0.010630 0.625000 0.854647
37.182808 17.178902 -0.992368 0.158632 -0.987286 -0.010109 0.375000 0.847703
36.853966 17.105783 0.988337 0.158632 -0.987286 -0.010109 0.625000 0.854647
36.854305 17.126120 -0.992368 0.158632 -0.987286 -0.010109 0.375000 0.854647
36.854305 17.126120 -0.992368 0.136398 -0.990602 -0.010147 0.375000 0.854647
36.853966 17.105783 0.988337 0.136398 -0.990602 -0.010147 0.625000 0.854647
36.523132 17.060230 0.988337 0.136398 -0.990602 -0.010147 0.625000 0.861592
36.854305 17.126120 -0.992368 0.139423 -0.990186 -0.009628 0.375000 0.854647
36.523132 17.060230 0.988337 0.139423 -0.990186 -0.009628 0.625000 0.861592
36.523823 17.079586 -0.992368 0.139423 -0.990186 -0.009628 0.375000 0.861592
36.523823 17.079586 -0.992368 0.117147 -0.993068 -0.009664 0.375000 0.861592
36.523132 17.060230 0.988337 0.117147 -0.993068 -0.009664 0.625000 0.861592
36.190475 17.020988 0.988337 0.117147 -0.993068 -0.009664 0.625000 0.868536
36.523823 17.079586 -0.992368 0.120166 -0.992712 -0.009145 0.375000 0.861592
36.190475 17.020988 0.988337 0.120166 -0.992712 -0.009145 0.625000 0.868536
36.191479 17.039356 -0.992368 0.120166 -0.992712 -0.009145 0.375000 0.868536
36.191479 17.039356 -0.992368 0.097868 -0.995157 -0.009179 0.375000 0.868536
36.190475 17.020988 0.988337 0.097868 -0.995157 -0.009179 0.625000 0.868536
35.856113 16.988106 0.988337 0.097868 -0.995157 -0.009179 0.625000 0.875481
36.191479 17.039356 -0.992368 0.100873 -0.994862 -0.008662 0.375000 0.868536
35.856113 16.988106 0.988337 0.100873 -0.994862 -0.008662 0.625000 0.875481
35.857391 17.005482 -0.992368 0.100873 -0.994862 -0.008662 0.375000 0.875481
35.857391 17.005482 -0.992368 0.078553 -0.996872 -0.008694 0.375000 0.875481
35.856113 16.988106 0.988337 0.078553 -0.996872 -0.008694 0.625000 0.875481
35.520172 16.961634 0.988337 0.078553 -0.996872 -0.008694 0.625000 0.882425
35.857391 17.005482 -0.992368 0.081540 -0.996636 -0.008181 0.375000 0.875481
35.520172 16.961634 0.988337 0.081540 -0.996636 -0.008181 0.625000 0.882425
35.521687 16.978016 -0.992368 0.081540 -0.996636 -0.008181 0.375000 0.882425
35.521687 16.978016 -0.992368 0.059200 -0.998212 -0.008211 0.375000 0.882425
35.520172 16.961634 0.988337 0.059200 -0.998212 -0.008211 0.625000 0.882425
35.182770 16.941624 0.988337 0.059200 -0.998212 -0.008211 0.625000 0.889370
35.521687 16.978016 -0.992368 0.062177 -0.998035 -0.007698 0.375000 0.882425
35.182770 16.941624 0.988337 0.062177 -0.998035 -0.007698 0.625000 0.889370
35.184486 16.957008 -0.992368 0.062177 -0.998035 -0.007698 0.375000 0.889370
35.184486 16.957008 -0.992368 0.039833 -0.999177 -0.007726 0.375000 0.889370
35.182770 16.941624 0.988337 0.039833 -0.999177 -0.007726 0.625000 0.889370
34.844032 16.928120 0.988337 0.039833 -0.999177 -0.007726 0.625000 0.896314
35.184486 16.957008 -0.992368 0.042797 -0.999058 -0.007215 0.375000 0.889370
34.844032 16.928120 0.988337 0.042797 -0.999058 -0.007215 0.625000 0.896314
34.845913 16.942505 -0.992368 0.042797 -0.999058 -0.007215 0.375000 0.896314
34.845913 16.942505 -0.992368 0.020452 -0.999765 -0.007242 0.375000 0.896314
34.844032 16.928120 0.988337 0.020452 -0.999765 -0.007242 0.625000 0.896314
34.504086 16.921165 0.988337 0.020452 -0.999765 -0.007242 0.625000 0.903259
34.845913 16.942505 -0.992368 0.023399 -0.999704 -0.006732 0.375000 0.896314
34.504086 16.921165 0.988337 0.023399 -0.999704 -0.006732 0.625000 0.903259
34.506096 16.934551 -0.992368 0.023399 -0.999704 -0.006732 0.375000 0.903259
34.506096 16.934551 -0.992368 0.001074 -0.999977 -0.006757 0.375000 0.903259
34.504086 16.921165 0.988337 0.001074 -0.999977 -0.006757 0.625000 0.903259
34.163059 16.920799 0.988337 0.001074 -0.999977 -0.006757 0.625000 0.910203
34.506096 16.934551 -0.992368 0.004000 -0.999973 -0.006250 0.375000 0.903259
34.163059 16.920799 0.988337 0.004000 -0.999973 -0.006250 0.625000 0.910203
34.165157 16.933187 -0.992368 0.004000 -0.999973 -0.006250 0.375000 0.910203
34.165157 16.933187 -0.992368 -0.018307 -0.999813 -0.006273 0.375000 0.910203
34.163059 16.920799 0.988337 -0.018307 -0.999813 -0.006273 0.625000 0.910203
33.821075 16.927061 0.988337 -0.018307 -0.999813 -0.006273 0.625000 0.917147
34.165157 16.933187 -0.992368 -0.015399 -0.999865 -0.005768 0.375000 0.910203
33.821075 16.927061 0.988337 -0.015399 -0.999865 -0.005768 0.625000 0.917147
33.823231 16.938454 -0.992368 -0.015399 -0.999865 -0.005768 0.375000 0.917147
33.823231 16.938454 -0.992368 -0.037691 -0.999273 -0.005789 0.375000 0.917147
33.821075 16.927061 0.988337 -0.037691 -0.999273 -0.005789 0.625000 0.917147
33.478271 16.939991 0.988337 -0.037691 -0.999273 -0.005789 0.625000 0.924092
33.823231 16.938454 -0.992368 -0.034794 -0.999381 -0.005284 0.375000 0.917147
33.478271 16.939991 0.988337 -0.034794 -0.999381 -0.005284 0.625000 0.924092
33.480442 16.950388 -0.992368 -0.034794 -0.999381 -0.005284 0.375000 0.924092
33.480442 16.950388 -0.992368 -0.057037 -0.998358 -0.005303 0.375000 0.924092
33.478271 16.939991 0.988337 -0.057037 -0.998358 -0.005303 0.625000 0.924092
33.134769 16.959616 0.988337 -0.057037 -0.998358 -0.005303 0.625000 0.931036
33.480442 16.950388 -0.992368 -0.054166 -0.998520 -0.004801 0.375000 0.924092
33.134769 16.959616 0.988337 -0.054166 -0.998520 -0.004801 0.625000 0.931036
33.136921 16.969023 -0.992368 -0.054166 -0.998520 -0.004801 0.375000 0.931036
33.136921 16.969023 -0.992368 -0.076366 -0.997068 -0.004818 0.375000 0.931036
33.134769 16.959616 0.988337 -0.076366 -0.997068 -0.004818 0.625000 0.931036
32.790707 16.985968 0.988337 -0.076366 -0.997068 -0.004818 0.625000 0.937981
33.136921 16.969023 -0.992368 -0.073518 -0.997285 -0.004319 0.375000 0.931036
32.790707 16.985968 0.988337 -0.073518 -0.997285 -0.004319 0.625000 0.937981
32.792801 16.994390 -0.992368 -0.073518 -0.997285 -0.004319 0.375000 0.937981
32.792801 16.994390 -0.992368 -0.095675 -0.995403 -0.004334 0.375000 0.937981
32.790707 16.985968 0.988337 -0.095675 -0.995403 -0.004334 0.625000 0.937981
32.446213 17.019079 0.988337 -0.095675 -0.995403 -0.004334 0.625000 0.944925
32.792801 16.994390 -0.992368 -0.092836 -0.995674 -0.003834 0.375000 0.937981
32.446213 17.019079 0.988337 -0.092836 -0.995674 -0.003834 0.625000 0.944925
32.448212 17.026520 -0.992368 -0.092836 -0.995674 -0.003834 0.375000 0.944925
32.448212 17.026520 -0.992368 -0.114925 -0.993367 -0.003848 0.375000 0.944925
32.446213 17.019079 0.988337 -0.114925 -0.993367 -0.003848 0.625000 0.944925
32.101418 17.058969 0.988337 -0.114925 -0.993367 -0.003848 0.625000 0.951870
32.448212 17.026520 -0.992368 -0.112122 -0.993689 -0.003352 0.375000 0.944925
32.101418 17.058969 0.988337 -0.112122 -0.993689 -0.003352 0.625000 0.951870
32.103287 17.065439 -0.992368 -0.112122 -0.993689 -0.003352 0.375000 0.951870
32.103287 17.065439 -0.992368 -0.134147 -0.990956 -0.003363 0.375000 0.951870
32.101418 17.058969 0.988337 -0.134147 -0.990956 -0.003363 0.625000 0.951870
31.756458 17.105667 0.988337 -0.134147 -0.990956 -0.003363 0.625000 0.958814
32.103287 17.065439 -0.992368 -0.131366 -0.991330 -0.002869 0.375000 0.951870
31.756458 17.105667 0.988337 -0.131366 -0.991330 -0.002869 0.625000 0.958814
31.758162 17.111174 -0.992368 -0.131366 -0.991330 -0.002869 0.375000 0.958814
31.758162 17.111174 -0.992368 -0.153311 -0.988174 -0.002879 0.375000 0.958814
31.756458 17.105667 0.988337 -0.153311 -0.988174 -0.002879 0.625000 0.958814
31.411467 17.159191 0.988337 -0.153311 -0.988174 -0.002879 0.625000 0.965759
31.758162 17.111174 -0.992368 -0.150547 -0.988600 -0.002385 0.375000 0.958814
31.411467 17.159191 0.988337 -0.150547 -0.988600 -0.002385 0.625000 0.965759
31.412971 17.163740 -0.992368 -0.150547 -0.988600 -0.002385 0.375000 0.965759
31.412971 17.163740 -0.992368 -0.172410 -0.985022 -0.002393 0.375000 0.965759
31.411467 17.159191 0.988337 -0.172410 -0.985022 -0.002393 0.625000 0.965759
31.066582 17.219557 0.988337 -0.172410 -0.985022 -0.002393 0.625000 0.972703
31.412971 17.163740 -0.992368 -0.169678 -0.985498 -0.001902 0.375000 0.965759
31.066582 17.219557 0.988337 -0.169678 -0.985498 -0.001902 0.625000 0.972703
31.067848 17.223162 -0.992368 -0.169678 -0.985498 -0.001902 0.375000 0.972703
31.067848 17.223162 -0.992368 -0.191446 -0.981501 -0.001909 0.375000 0.972703
31.066582 17.219557 0.988337 -0.191446 -0.981501 -0.001909 0.625000 0.972703
30.721937 17.286781 0.988337 -0.191446 -0.981501 -0.001909 0.625000 0.979647
31.067848 17.223162 -0.992368 -0.188731 -0.982028 -0.001418 0.375000 0.972703
30.721937 17.286781 0.988337 -0.188731 -0.982028 -0.001418 0.625000 0.979647
30.722931 17.289450 -0.992368 -0.188731 -0.982028 -0.001418 0.375000 0.979647
30.722931 17.289450 -0.992368 -0.210405 -0.977613 -0.001423 0.375000 0.979647
30.721937 17.286781 0.988337 -0.210405 -0.977613 -0.001423 0.625000 0.979647
30.377668 17.360876 0.988337 -0.210405 -0.977613 -0.001423 0.625000 0.986592
30.722931 17.289450 -0.992368 -0.207722 -0.978188 -0.000934 0.375000 0.979647
30.377668 17.360876 0.988337 -0.207722 -0.978188 -0.000934 0.625000 0.986592
30.378357 17.362621 -0.992368 -0.207722 -0.978188 -0.000934 0.375000 0.986592
30.378357 17.362621 -0.992368 -0.229288 -0.973358 -0.000937 0.375000 0.986592
30.377668 17.360876 0.988337 -0.229288 -0.973358 -0.000937 0.625000 0.986592
30.033913 17.441853 0.988337 -0.229288 -0.973358 -0.000937 0.625000 0.993536
30.378357 17.362621 -0.992368 -0.226633 -0.973980 -0.000451 0.375000 0.986592
30.033913 17.441853 0.988337 -0.226633 -0.973980 -0.000451 0.625000 0.993536
30.034262 17.442688 -0.992368 -0.226633 -0.973980 -0.000451 0.375000 0.993536
30.516026 19.355793 -0.992368 0.392669 0.919680 0.000000 0.375000 0.250000
30.516026 19.355793 0.988337 0.392669 0.919680 0.000000 0.625000 0.250000
30.783649 19.241528 0.988337 0.392669 0.919680 0.000000 0.625000 0.256464
30.783649 19.241528 -0.992368 0.392669 0.919680 -0.000000 0.375000 0.256464
30.783649 19.241528 -0.992368 0.375813 0.926696 0.000000 0.375000 0.256464
30.783649 19.241528 0.988337 0.375813 0.926696 0.000000 0.625000 0.256464
31.073368 19.124035 0.988337 0.375813 0.926696 0.000000 0.625000 0.263408
31.073368 19.124035 -0.992368 0.375813 0.926696 -0.000000 0.375000 0.263408
31.073368 19.124035 -0.992368 0.358228 0.933634 0.000000 0.375000 0.263408
31.073368 19.124035 0.988337 0.358228 0.933634 0.000000 0.625000 0.263408
31.365257 19.012039 0.988337 0.358228 0.933634 0.000000 0.625000 0.270353
31.365257 19.012039 -0.992368 0.358228 0.933634 -0.000000 0.375000 0.270353
31.365257 19.012039 -0.992368 0.340511 0.940241 0.000000 0.375000 0.270353
31.365257 19.012039 0.988337 0.340511 0.940241 0.000000 0.625000 0.270353
31.659212 18.905582 0.988337 0.340511 0.940241 0.000000 0.625000 0.277297
31.659212 18.905582 -0.992368 0.340511 0.940241 -0.000000 0.375000 0.277297
31.659212 18.905582 -0.992368 0.322672 0.946511 0.000000 0.375000 0.277297
31.659212 18.905582 0.988337 0.322672 0.946511 0.000000 0.625000 0.277297
31.955128 18.804703 0.988337 0.322672 0.946511 0.000000 0.625000 0.284241
31.955128 18.804703 -0.992368 0.322672 0.946511 -0.000000 0.375000 0.284241
31.955128 18.804703 -0.992368 0.304725 0.952440 0.000000 0.375000 0.284241
31.955128 18.804703 0.988337 0.304725 0.952440 0.000000 0.625000 0.284241
32.252895 18.709435 0.988337 0.304725 0.952440 0.000000 0.625000 0.291186
32.252895 18.709435 -0.992368 0.304725 0.952440 -0.000000 0.375000 0.291186
32.252895 18.709435 -0.992368 0.286653 0.958035 0.000000 0.375000 0.291186
32.252895 18.709435 0.988337 0.286653 0.958035 0.000000 0.625000 0.291186
32.552414 18.619816 0.988337 0.286653 0.958035 0.000000 0.625000 0.298130
32.552414 18.619816 -0.992368 0.286653 0.958035 -0.000000 0.375000 0.298130
32.552414 18.619816 -0.992368 0.268496 0.963281 0.000000 0.375000 0.298130
32.552414 18.619816 0.988337 0.268496 0.963281 0.000000 0.625000 0.298130
32.853573 18.535873 0.988337 0.268496 0.963281 0.000000 0.625000 0.305075
32.853573 18.535873 -0.992368 0.268496 0.963281 -0.000000 0.375000 0.305075
32.853573 18.535873 -0.992368 0.250231 0.968186 0.000000 0.375000 0.305075
32.853573 18.535873 0.988337 0.250231 0.968186 0.000000 0.625000 0.305075
33.156265 18.457642 0.988337 0.250231 0.968186 0.000000 0.625000 0.312019
32.853573 18.535873 -0.992368 0.250234 0.968185 -0.000000 0.375000 0.305075
33.156265 18.457642 0.988337 0.250234 0.968185 -0.000000 0.625000 0.312019
33.156261 18.457642 -0.992368 0.250234 0.968185 -0.000000 0.375000 0.312019
33.156261 18.457642 -0.992368 0.231887 0.972743 -0.000000 0.375000 0.312019
33.156265 18.457642 0.988337 0.231887 0.972743 -0.000000 0.625000 0.312019
33.460381 18.385145 0.988337 0.231887 0.972743 -0.000000 0.625000 0.318964
33.156261 18.457642 -0.992368 0.231878 0.972745 0.000001 0.375000 0.312019
33.460381 18.385145 0.988337 0.231878 0.972745 0.000001 0.625000 0.318964
33.460381 18.385147 -0.992368 0.231878 0.972745 0.000001 0.375000 0.318964
33.460381 18.385147 -0.992368 0.213451 0.976954 0.000001 0.375000 0.318964
33.460381 18.385145 0.988337 0.213451 0.976954 0.000001 0.625000 0.318964
33.765812 18.318413 0.988337 0.213451 0.976954 0.000001 0.625000 0.325908
33.460381 18.385147 -0.992368 0.213456 0.976953 -0.000000 0.375000 0.318964
33.765812 18.318413 0.988337 0.213456 0.976953 -0.000000 0.625000 0.325908
33.765812 18.318413 -0.992368 0.213456 0.976953 -0.000000 0.375000 0.325908
33.765812 18.318413 -0.992368 0.194939 0.980815 0.000000 0.375000 0.325908
33.765812 18.318413 0.988337 0.194939 0.980815 0.000000 0.625000 0.325908
34.072453 18.257467 0.988337 0.194939 0.980815 0.000000 0.625000 0.332853
34.072453 18.257467 -0.992368 0.194939 0.980815 -0.000000 0.375000 0.332853
34.072453 18.257467 -0.992368 0.176364 0.984325 0.000000 0.375000 0.332853
34.072453 18.257467 0.988337 0.176364 0.984325 0.000000 0.625000 0.332853
34.380188 18.202330 0.988337 0.176364 0.984325 0.000000 0.625000 0.339797
34.380188 18.202330 -0.992368 0.176364 0.984325 -0.000000 0.375000 0.339797
34.380188 18.202330 -0.992368 0.157723 0.987483 0.000000 0.375000 0.339797
34.380188 18.202330 0.988337 0.157723 0.987483 0.000000 0.625000 0.339797
34.688915 18.153019 0.988337 0.157723 0.987483 0.000000 0.625000 0.346741
34.380188 18.202330 -0.992368 0.157725 0.987483 -0.000000 0.375000 0.339797
34.688915 18.153019 0.988337 0.157725 0.987483 -0.000000 0.625000 0.346741
34.688911 18.153019 -0.992368 0.157725 0.987483 -0.000000 0.375000 0.346741
34.688911 18.153019 -0.992368 0.139026 0.990289 -0.000000 0.375000 0.346741
34.688915 18.153019 0.988337 0.139026 0.990289 -0.000000 0.625000 0.346741
34.998516 18.109554 0.988337 0.139026 0.990289 -0.000000 0.625000 0.353686
34.688911 18.153019 -0.992368 0.139024 0.990289 -0.000000 0.375000 0.346741
34.998516 18.109554 0.988337 0.139024 0.990289 -0.000000 0.625000 0.353686
34.998516 18.109554 -0.992368 0.139024 0.990289 -0.000000 0.375000 0.353686
34.998516 18.109554 -0.992368 0.120272 0.992741 0.000000 0.375000 0.353686
34.998516 18.109554 0.988337 0.120272 0.992741 0.000000 0.625000 0.353686
35.308884 18.071953 0.988337 0.120272 0.992741 0.000000 0.625000 0.360630
35.308884 18.071953 -0.992368 0.120272 0.992741 -0.000000 0.375000 0.360630
35.308884 18.071953 -0.992368 0.101487 0.994837 0.000000 0.375000 0.360630
35.308884 18.071953 0.988337 0.101487 0.994837 0.000000 0.625000 0.360630
35.619907 18.040224 0.988337 0.101487 0.994837 0.000000 0.625000 0.367575
35.619907 18.040224 -0.992368 0.101487 0.994837 -0.000000 0.375000 0.367575
35.619907 18.040224 -0.992368 0.082654 0.996578 0.000000 0.375000 0.367575
35.619907 18.040224 0.988337 0.082654 0.996578 0.000000 0.625000 0.367575
35.931477 18.014383 0.988337 0.082654 0.996578 0.000000 0.625000 0.374519
35.619907 18.040224 -0.992368 0.082655 0.996578 -0.000000 0.375000 0.367575
35.931477 18.014383 0.988337 0.082655 0.996578 -0.000000 0.625000 0.374519
35.931473 18.014383 -0.992368 0.082655 0.996578 -0.000000 0.375000 0.374519
35.931473 18.014383 -0.992368 0.063803 0.997963 -0.000000 0.375000 0.374519
35.931477 18.014383 0.988337 0.063803 0.997963 -0.000000 0.625000 0.374519
36.243477 17.994436 0.988337 0.063803 0.997963 -0.000000 0.625000 0.381464
35.931473 18.014383 -0.992368 0.063802 0.997963 -0.000000 0.375000 0.374519
36.243477 17.994436 0.988337 0.063802 0.997963 -0.000000 0.625000 0.381464
36.243477 17.994436 -0.992368 0.063802 0.997963 -0.000000 0.375000 0.381464
36.243477 17.994436 -0.992368 0.044920 0.998991 0.000000 0.375000 0.381464
36.243477 17.994436 0.988337 0.044920 0.998991 0.000000 0.625000 0.381464
36.555801 17.980392 0.988337 0.044920 0.998991 0.000000 0.625000 0.388408
36.243477 17.994436 -0.992368 0.044921 0.998991 -0.000000 0.375000 0.381464
36.555801 17.980392 0.988337 0.044921 0.998991 -0.000000 0.625000 0.388408
36.555798 17.980392 -0.992368 0.044921 0.998991 -0.000000 0.375000 0.388408
36.555798 17.980392 -0.992368 0.026026 0.999661 -0.000000 0.375000 0.388408
36.555801 17.980392 0.988337 0.026026 0.999661 -0.000000 0.625000 0.388408
36.868332 17.972256 0.988337 0.026026 0.999661 -0.000000 0.625000 0.395353
36.868328 17.972256 -0.992368 0.026026 0.999661 -0.000000 0.375000 0.395353
36.868328 17.972256 -0.992368 0.007120 0.999975 -0.000000 0.375000 0.395353
36.868332 17.972256 0.988337 0.007120 0.999975 -0.000000 0.625000 0.395353
37.180962 17.970030 0.988337 0.007120 0.999975 -0.000000 0.625000 0.402297
37.180958 17.970030 -0.992368 0.007120 0.999975 -0.000000 0.375000 0.402297
37.180958 17.970030 -0.992368 -0.011781 0.999931 0.000000 0.375000 0.402297
37.180962 17.970030 0.988337 -0.011781 0.999931 0.000000 0.625000 0.402297
37.493576 17.973713 0.988337 -0.011781 0.999931 0.000000 0.625000 0.409242
37.493576 17.973713 -0.992368 -0.011781 0.999931 0.000000 0.375000 0.409241
37.493576 17.973713 -0.992368 -0.030693 0.999529 0.000000 0.375000 0.409241
37.493576 17.973713 0.988337 -0.030693 0.999529 0.000000 0.625000 0.409242
37.806068 17.983309 0.988337 -0.030693 0.999529 0.000000 0.625000 0.416186
37.806065 17.983309 -0.992368 -0.030693 0.999529 0.000000 0.375000 0.416186
37.806065 17.983309 -0.992368 -0.049582 0.998770 0.000000 0.375000 0.416186
37.806068 17.983309 0.988337 -0.049582 0.998770 0.000000 0.625000 0.416186
38.118320 17.998810 0.988337 -0.049582 0.998770 0.000000 0.625000 0.423130
37.806065 17.983309 -0.992368 -0.049581 0.998770 0.000000 0.375000 0.416186
38.118320 17.998810 0.988337 -0.049581 0.998770 0.000000 0.625000 0.423130
38.118320 17.998810 -0.992368 -0.049581 0.998770 0.000000 0.375000 0.423130
38.118320 17.998810 -0.992368 -0.068457 0.997654 0.000000 0.375000 0.423130
38.118320 17.998810 0.988337 -0.068457 0.997654 0.000000 0.625000 0.423130
38.430225 18.020212 0.988337 -0.068457 0.997654 0.000000 0.625000 0.430075
38.118320 17.998810 -0.992368 -0.068458 0.997654 0.000000 0.375000 0.423130
38.430225 18.020212 0.988337 -0.068458 0.997654 0.000000 0.625000 0.430075
38.430222 18.020212 -0.992368 -0.068458 0.997654 0.000000 0.375000 0.430075
38.430222 18.020212 -0.992368 -0.087303 0.996182 0.000000 0.375000 0.430075
38.430225 18.020212 0.988337 -0.087303 0.996182 0.000000 0.625000 0.430075
38.741669 18.047506 0.988337 -0.087303 0.996182 0.000000 0.625000 0.437019
38.430222 18.020212 -0.992368 -0.087302 0.996182 0.000000 0.375000 0.430075
38.741669 18.047506 0.988337 -0.087302 0.996182 0.000000 0.625000 0.437019
38.741669 18.047506 -0.992368 -0.087302 0.996182 0.000000 0.375000 0.437019
38.741669 18.047506 -0.992368 -0.106123 0.994353 0.000000 0.375000 0.437019
38.741669 18.047506 0.988337 -0.106123 0.994353 0.000000 0.625000 0.437019
39.052544 18.080685 0.988337 -0.106123 0.994353 0.000000 0.625000 0.443964
38.741669 18.047506 -0.992368 -0.106124 0.994353 0.000000 0.375000 0.437019
39.052544 18.080685 0.988337 -0.106124 0.994353 0.000000 0.625000 0.443964
39.052540 18.080685 -0.992368 -0.106124 0.994353 0.000000 0.375000 0.443964
39.052540 18.080685 -0.992368 -0.124909 0.992168 0.000000 0.375000 0.443964
39.052544 18.080685 0.988337 -0.124909 0.992168 0.000000 0.625000 0.443964
39.362732 18.119736 0.988337 -0.124909 0.992168 0.000000 0.625000 0.450908
39.362728 18.119736 -0.992368 -0.124909 0.992168 0.000000 0.375000 0.450908
39.362728 18.119736 -0.992368 -0.143644 0.989629 0.000000 0.375000 0.450908
39.362732 18.119736 0.988337 -0.143644 0.989629 0.000000 0.625000 0.450908
39.672127 18.164644 0.988337 -0.143644 0.989629 0.000000 0.625000 0.457853
39.362728 18.119736 -0.992368 -0.143643 0.989630 0.000000 0.375000 0.450908
39.672127 18.164644 0.988337 -0.143643 0.989630 0.000000 0.625000 0.457853
39.672127 18.164644 -0.992368 -0.143643 0.989630 0.000000 0.375000 0.457853
39.672127 18.164644 -0.992368 -0.162325 0.986737 0.000000 0.375000 0.457853
39.672127 18.164644 0.988337 -0.162325 0.986737 0.000000 0.625000 0.457853
39.980618 18.215393 0.988337 -0.162325 0.986737 0.000000 0.625000 0.464797
39.980618 18.215393 -0.992368 -0.162325 0.986737 0.000000 0.375000 0.464797
39.980618 18.215393 -0.992368 -0.180957 0.983491 0.000000 0.375000 0.464797
39.980618 18.215393 0.988337 -0.180957 0.983491 0.000000 0.625000 0.464797
40.288094 18.271967 0.988337 -0.180957 0.983491 0.000000 0.625000 0.471741
40.288094 18.271967 -0.992368 -0.180957 0.983491 0.000000 0.375000 0.471741
40.288094 18.271967 -0.992368 -0.199514 0.979895 0.000000 0.375000 0.471741
40.288094 18.271967 0.988337 -0.199514 0.979895 0.000000 0.625000 0.471741
40.594448 18.334343 0.988337 -0.199514 0.979895 0.000000 0.625000 0.478686
40.288094 18.271967 -0.992368 -0.199516 0.979894 0.000000 0.375000 0.471741
40.594448 18.334343 0.988337 -0.199516 0.979894 0.000000 0.625000 0.478686
40.594444 18.334343 -0.992368 -0.199516 0.979894 0.000000 0.375000 0.478686
40.594444 18.334343 -0.992368 -0.218007 0.975947 0.000000 0.375000 0.478686
40.594448 18.334343 0.988337 -0.218007 0.975947 0.000000 0.625000 0.478686
40.899567 18.402500 0.988337 -0.218007 0.975947 0.000000 0.625000 0.485630
40.899563 18.402500 -0.992368 -0.218007 0.975947 0.000000 0.375000 0.485630
40.899563 18.402500 -0.992368 -0.236421 0.971651 0.000000 0.375000 0.485630
40.899567 18.402500 0.988337 -0.236421 0.971651 0.000000 0.625000 0.485630
41.203339 18.476414 0.988337 -0.236421 0.971651 0.000000 0.625000 0.492575
40.899563 18.402500 -0.992368 -0.236419 0.971651 0.000000 0.375000 0.485630
41.203339 18.476414 0.988337 -0.236419 0.971651 0.000000 0.625000 0.492575
41.203339 18.476414 -0.992368 -0.236419 0.971651 0.000000 0.375000 0.492575
3 0 1 2
3 0 2 3
3 4 5 6
3 4 6 7
3 8 9 10
3 11 12 13
3 14 15 16
3 17 18 19
3 20 21 22
3 20 22 23
3 24 25 26
3 24 26 27
3 28 29 30
3 28 30 31
3 29 32 33
3 29 33 30
3 32 34 35
3 32 35 33
3 34 36 37
3 34 37 35
3 36 38 39
3 36 39 37
3 38 40 41
3 38 41 39
3 40 42 43
3 40 43 41
3 42 44 45
3 42 45 43
3 44 46 47
3 44 47 45
3 46 48 49
3 46 49 47
3 48 50 51
3 48 51 49
3 50 52 53
3 50 53 51
3 52 54 55
3 52 55 53
3 54 56 57
3 54 57 55
3 56 58 59
3 56 59 57
3 58 60 61
3 58 61 59
3 60 62 63
3 60 63 61
3 62 64 65
3 62 65 63
3 64 66 67
3 64 67 65
3 66 68 69
3 66 69 67
3 68 70 71
3 68 71 69
3 70 72 73
3 70 73 71
3 72 74 75
3 72 75 73
3 74 76 77
3 74 77 75
3 76 78 79
3 76 79 77
3 78 80 81
3 78 81 79
3 80 82 83
3 80 83 81
3 82 84 85
3 82 85 83
3 84 86 87
3 84 87 85
3 86 88 89
3 86 89 87
3 88 90 91
3 88 91 89
3 90 92 93
3 90 93 91
3 92 94 95
3 92 95 93
3 94 96 97
3 94 97 95
3 96 24 27
3 96 27 97
3 98 99 100
3 98 100 101
3 99 102 103
3 99 103 100
3 102 104 105
3 102 105 103
3 104 106 107
3 104 107 105
3 106 108 109
3 106 109 107
3 108 110 111
3 108 111 109
3 110 112 113
3 110 113 111
3 112 114 115
3 112 115 113
3 114 116 117
3 114 117 115
3 116 118 119
3 116 119 117
3 118 120 121
3 118 121 119
3 120 122 123
3 120 123 121
3 122 124 125
3 122 125 123
3 124 126 127
3 124 127 125
3 126 128 129
3 126 129 127
3 128 130 131
3 128 131 129
3 130 132 133
3 130 133 131
3 132 134 135
3 132 135 133
3 134 136 137
3 134 137 135
3 136 138 139
3 136 139 137
3 138 140 141
3 138 141 139
3 140 142 143
3 140 143 141
3 142 144 145
3 142 145 143
3 144 146 147
3 144 147 145
3 146 148 149
3 146 149 147
3 148 150 151
3 148 151 149
3 150 152 153
3 150 153 151
3 152 154 155
3 152 155 153
3 154 156 157
3 154 157 155
3 156 158 159
3 156 159 157
3 158 160 161
3 158 161 159
3 160 162 163
3 160 163 161
3 162 164 165
3 162 165 163
3 164 166 167
3 164 167 165
3 166 20 23
3 166 23 167
3 168 169 170
3 171 172 173
3 174 175 176
3 177 178 179
3 180 181 182
3 183 184 185
3 186 187 188
3 189 190 191
3 192 193 194
3 195 196 197
3 198 199 200
3 201 202 203
3 204 205 206
3 207 208 209
3 210 211 212
3 213 214 215
3 216 217 218
3 219 220 221
3 222 223 224
3 225 226 227
3 228 229 230
3 231 232 233
3 234 235 236
3 237 238 239
3 240 241 242
3 243 244 245
3 246 247 248
3 249 250 251
3 252 253 254
3 255 256 257
3 258 259 260
3 261 262 263
3 264 265 266
3 267 268 269
3 270 271 272
3 273 274 275
3 276 277 278
3 279 280 281
3 282 283 284
3 285 286 287
3 288 289 290
3 291 292 293
3 294 295 296
3 297 298 299
3 300 301 302
3 303 304 305
3 306 307 308
3 309 310 311
3 312 313 314
3 315 316 317
3 318 319 320
3 321 322 323
3 324 325 326
3 327 328 329
3 330 331 332
3 333 334 335
3 336 337 338
3 339 340 341
3 342 343 344
3 345 346 347
3 348 349 350
3 351 352 353
3 354 355 356
3 357 358 359
3 360 361 362
3 363 364 365
3 366 367 368
3 369 370 371
3 372 373 374
3 375 376 377
3 378 379 380
3 378 380 381
3 382 383 384
3 382 384 385
3 386 387 388
3 386 388 389
3 390 391 392
3 390 392 393
3 394 395 396
3 394 396 397
3 398 399 400
3 398 400 401
3 402 403 404
3 402 404 405
3 406 407 408
3 406 408 409
3 410 411 412
3 413 414 415
3 416 417 418
3 419 420 421
3 422 423 424
3 425 426 427
3 428 429 430
3 428 430 431
3 432 433 434
3 432 434 435
3 436 437 438
3 439 440 441
3 442 443 444
3 445 446 447
3 448 449 450
3 448 450 451
3 452 453 454
3 452 454 455
3 456 457 458
3 459 460 461
3 462 463 464
3 465 466 467
3 468 469 470
3 471 472 473
3 474 475 476
3 474 476 477
3 478 479 480
3 478 480 481
3 482 483 484
3 482 484 485
3 486 487 488
3 486 488 489
3 490 491 492
3 493 494 495
3 496 497 498
3 499 500 501
3 502 503 504
3 505 506 507
3 508 509 510
3 511 512 513
3 514 515 516
3 514 516 517
3 518 519 520
3 521 522 523
3 524 525 526
3 524 526 527
3 528 529 530
3 528 530 531
3 532 533 534
3 535 536 537
3 538 539 540
3 538 540 541
3 542 543 544
3 545 546 547
