ply
format ascii 1.0
comment Created by Blender 2.80 (sub 75) - www.blender.org, source file: 'wirecutters.blend'
element vertex 503
property float x
property float y
property float z
property float nx
property float ny
property float nz
property float s
property float t
element face 316
property list uchar uint vertex_indices
end_header
-0.157896 22.926205 -0.863626 0.010414 0.008247 -0.999912 0.618484 0.000000
-0.993072 22.835197 -0.873075 0.010414 0.008247 -0.999912 0.625000 0.000000
-1.099549 23.811644 -0.866131 0.010414 0.008247 -0.999912 0.625000 0.250000
-0.264376 23.902651 -0.856682 0.010414 0.008247 -0.999912 0.618484 0.250000
-0.274605 23.894548 0.125489 -0.108403 0.994082 0.007072 0.375000 0.493484
-0.264376 23.902651 -0.856682 -0.108403 0.994082 0.007072 0.625000 0.493484
-1.099549 23.811644 -0.866131 -0.108403 0.994082 0.007072 0.625000 0.500000
-0.274605 23.894548 0.125489 -0.108401 0.994082 0.007070 0.375000 0.493484
-1.099549 23.811644 -0.866131 -0.108401 0.994082 0.007070 0.625000 0.500000
-1.109780 23.803543 0.116041 -0.108401 0.994082 0.007070 0.375000 0.500000
-1.109780 23.803543 0.116041 -0.994053 -0.108318 -0.011248 0.375000 0.500000
-1.099549 23.811644 -0.866131 -0.994053 -0.108318 -0.011248 0.625000 0.500000
-0.993072 22.835197 -0.873075 -0.994053 -0.108318 -0.011248 0.625000 0.750000
-1.109780 23.803543 0.116041 -0.994052 -0.108320 -0.011246 0.375000 0.500000
-0.993072 22.835197 -0.873075 -0.994052 -0.108320 -0.011246 0.625000 0.750000
-1.003301 22.827097 0.109096 -0.994052 -0.108320 -0.011246 0.375000 0.750000
28.377090 19.203110 0.385203 -0.010414 -0.008247 0.999912 0.618696 0.750000
29.010748 18.694000 0.387603 -0.010414 -0.008247 0.999912 0.625000 0.750000
29.625885 19.459686 0.400325 -0.010414 -0.008247 0.999912 0.625000 1.000000
28.992229 19.968794 0.397924 -0.010414 -0.008247 0.999912 0.618696 1.000000
29.010748 18.694000 0.387603 0.779553 -0.626330 0.002952 0.125000 0.500000
29.020977 18.702103 -0.594568 0.779553 -0.626330 0.002952 0.375000 0.500000
29.636114 19.467785 -0.581846 0.779553 -0.626330 0.002952 0.375000 0.750000
29.010748 18.694000 0.387603 0.779554 -0.626328 0.002954 0.125000 0.500000
29.636114 19.467785 -0.581846 0.779554 -0.626328 0.002954 0.375000 0.750000
29.625885 19.459686 0.400325 0.779554 -0.626328 0.002954 0.125000 0.750000
28.377090 19.203110 0.385203 -0.626249 -0.779516 -0.012953 0.625000 0.743696
28.387321 19.211210 -0.596969 -0.626249 -0.779516 -0.012953 0.875000 0.743696
29.020977 18.702103 -0.594568 -0.626249 -0.779516 -0.012953 0.875000 0.750000
28.377090 19.203110 0.385203 -0.626249 -0.779515 -0.012953 0.625000 0.743696
29.020977 18.702103 -0.594568 -0.626249 -0.779515 -0.012953 0.875000 0.750000
29.010748 18.694000 0.387603 -0.626249 -0.779515 -0.012953 0.625000 0.750000
-1.003301 22.827097 0.109096 0.108403 -0.994082 -0.007070 0.625000 0.500000
-0.993072 22.835197 -0.873075 0.108403 -0.994082 -0.007070 0.875000 0.500000
-0.157896 22.926205 -0.863626 0.108403 -0.994082 -0.007070 0.875000 0.506516
-0.168125 22.918104 0.118545 0.108403 -0.994082 -0.007070 0.625000 0.506516
0.663698 23.015732 -0.854331 0.108403 -0.994082 -0.007070 0.875000 0.512926
0.653470 23.007631 0.127840 0.108403 -0.994082 -0.007070 0.625000 0.512926
1.485292 23.105259 -0.845036 0.108403 -0.994082 -0.007070 0.875000 0.519337
1.475065 23.097158 0.137136 0.108403 -0.994082 -0.007070 0.625000 0.519337
2.306886 23.194786 -0.835740 0.108403 -0.994082 -0.007070 0.875000 0.525747
1.475065 23.097158 0.137136 0.108401 -0.994082 -0.007072 0.625000 0.519337
2.306886 23.194786 -0.835740 0.108401 -0.994082 -0.007072 0.875000 0.525747
2.296659 23.186684 0.146431 0.108401 -0.994082 -0.007072 0.625000 0.525747
3.128479 23.284311 -0.826445 0.108401 -0.994082 -0.007072 0.875000 0.532157
2.296659 23.186684 0.146431 0.108403 -0.994082 -0.007070 0.625000 0.525747
3.128479 23.284311 -0.826445 0.108403 -0.994082 -0.007070 0.875000 0.532157
3.118252 23.276211 0.155726 0.108403 -0.994082 -0.007070 0.625000 0.532157
3.950072 23.373838 -0.817150 0.108403 -0.994082 -0.007070 0.875000 0.538567
3.939846 23.365738 0.165021 0.108403 -0.994082 -0.007070 0.625000 0.538568
4.771667 23.463366 -0.807855 0.108403 -0.994082 -0.007070 0.875000 0.544978
4.761441 23.455265 0.174317 0.108403 -0.994082 -0.007070 0.625000 0.544978
5.593261 23.552893 -0.798559 0.108403 -0.994082 -0.007070 0.875000 0.551388
5.583035 23.544792 0.183612 0.108403 -0.994082 -0.007070 0.625000 0.551388
6.414854 23.642420 -0.789264 0.108403 -0.994082 -0.007070 0.875000 0.557798
6.404630 23.634319 0.192907 0.108403 -0.994082 -0.007070 0.625000 0.557798
6.404630 23.634319 0.192907 0.108400 -0.994082 -0.007070 0.625000 0.557798
6.414854 23.642420 -0.789264 0.108400 -0.994082 -0.007070 0.875000 0.557798
7.236448 23.731945 -0.779969 0.108400 -0.994082 -0.007070 0.875000 0.564208
6.404630 23.634319 0.192907 0.108403 -0.994082 -0.007068 0.625000 0.557798
7.236448 23.731945 -0.779969 0.108403 -0.994082 -0.007068 0.875000 0.564208
7.226225 23.723846 0.202202 0.108403 -0.994082 -0.007068 0.625000 0.564209
8.058043 23.821472 -0.770674 0.108403 -0.994082 -0.007068 0.875000 0.570619
7.226225 23.723846 0.202202 0.108401 -0.994082 -0.007070 0.625000 0.564209
8.058043 23.821472 -0.770674 0.108401 -0.994082 -0.007070 0.875000 0.570619
8.047818 23.813372 0.211498 0.108401 -0.994082 -0.007070 0.625000 0.570619
8.047818 23.813372 0.211498 0.108403 -0.994082 -0.007070 0.625000 0.570619
8.058043 23.821472 -0.770674 0.108403 -0.994082 -0.007070 0.875000 0.570619
8.879637 23.910999 -0.761378 0.108403 -0.994082 -0.007070 0.875000 0.577029
8.869412 23.902899 0.220793 0.108403 -0.994082 -0.007070 0.625000 0.577029
9.701231 24.000526 -0.752083 0.108403 -0.994082 -0.007070 0.875000 0.583439
9.691007 23.992426 0.230088 0.108403 -0.994082 -0.007070 0.625000 0.583439
10.522825 24.090054 -0.742788 0.108403 -0.994082 -0.007070 0.875000 0.589850
10.512602 24.081953 0.239384 0.108403 -0.994082 -0.007070 0.625000 0.589850
11.344419 24.179581 -0.733492 0.108403 -0.994082 -0.007070 0.875000 0.596260
11.334195 24.171480 0.248679 0.108403 -0.994082 -0.007070 0.625000 0.596260
11.334195 24.171480 0.248679 0.108400 -0.994082 -0.007070 0.625000 0.596260
11.344419 24.179581 -0.733492 0.108400 -0.994082 -0.007070 0.875000 0.596260
12.166014 24.269106 -0.724197 0.108400 -0.994082 -0.007070 0.875000 0.602670
11.334195 24.171480 0.248679 0.108403 -0.994082 -0.007068 0.625000 0.596260
12.166014 24.269106 -0.724197 0.108403 -0.994082 -0.007068 0.875000 0.602670
12.155789 24.261007 0.257974 0.108403 -0.994082 -0.007068 0.625000 0.602670
12.987608 24.358633 -0.714902 0.108403 -0.994082 -0.007068 0.875000 0.609080
12.155789 24.261007 0.257974 0.108400 -0.994082 -0.007070 0.625000 0.602670
12.987608 24.358633 -0.714902 0.108400 -0.994082 -0.007070 0.875000 0.609080
12.977384 24.350533 0.267269 0.108400 -0.994082 -0.007070 0.625000 0.609080
12.977384 24.350533 0.267269 0.108403 -0.994082 -0.007070 0.625000 0.609080
12.987608 24.358633 -0.714902 0.108403 -0.994082 -0.007070 0.875000 0.609080
13.809202 24.448160 -0.705607 0.108403 -0.994082 -0.007070 0.875000 0.615491
13.798978 24.440060 0.276565 0.108403 -0.994082 -0.007070 0.625000 0.615491
14.630796 24.537687 -0.696311 0.108403 -0.994082 -0.007070 0.875000 0.621901
14.620572 24.529587 0.285860 0.108403 -0.994082 -0.007070 0.625000 0.621901
14.620572 24.529587 0.285860 0.106629 -0.994274 -0.007090 0.625000 0.621901
14.630796 24.537687 -0.696311 0.106629 -0.994274 -0.007090 0.875000 0.621901
15.445423 24.624985 -0.687107 0.106629 -0.994274 -0.007090 0.875000 0.628311
14.620572 24.529587 0.285860 0.106627 -0.994274 -0.007092 0.625000 0.621901
15.445423 24.624985 -0.687107 0.106627 -0.994274 -0.007092 0.875000 0.628311
15.435199 24.616882 0.295064 0.106627 -0.994274 -0.007092 0.625000 0.628311
15.435199 24.616882 0.295064 0.064967 -0.997859 -0.007556 0.625000 0.628311
15.445423 24.624985 -0.687107 0.064967 -0.997859 -0.007556 0.875000 0.628311
16.241583 24.676754 -0.678388 0.064967 -0.997859 -0.007556 0.875000 0.634721
16.231359 24.668652 0.303783 0.064967 -0.997859 -0.007556 0.625000 0.634721
16.231359 24.668652 0.303783 0.006968 -0.999942 -0.008176 0.625000 0.634721
16.241583 24.676754 -0.678388 0.006968 -0.999942 -0.008176 0.875000 0.634721
17.039412 24.682245 -0.670033 0.006968 -0.999942 -0.008176 0.875000 0.641132
16.231359 24.668652 0.303783 0.006970 -0.999942 -0.008175 0.625000 0.634721
17.039412 24.682245 -0.670033 0.006970 -0.999942 -0.008175 0.875000 0.641132
17.029186 24.674145 0.312138 0.006970 -0.999942 -0.008175 0.625000 0.641132
17.029186 24.674145 0.312138 -0.051051 -0.998658 -0.008768 0.625000 0.641132
17.039412 24.682245 -0.670033 -0.051051 -0.998658 -0.008768 0.875000 0.641132
17.836216 24.641443 -0.662071 -0.051051 -0.998658 -0.008768 0.875000 0.647542
17.825993 24.633343 0.320100 -0.051051 -0.998658 -0.008768 0.625000 0.647542
17.825993 24.633343 0.320100 -0.108900 -0.994009 -0.009332 0.625000 0.647542
17.836216 24.641443 -0.662071 -0.108900 -0.994009 -0.009332 0.875000 0.647542
18.629318 24.554483 -0.654528 -0.108900 -0.994009 -0.009332 0.875000 0.653952
18.619093 24.546383 0.327643 -0.108900 -0.994009 -0.009332 0.625000 0.653952
18.619093 24.546383 0.327643 -0.166381 -0.986012 -0.009864 0.625000 0.653952
18.629318 24.554483 -0.654528 -0.166381 -0.986012 -0.009864 0.875000 0.653952
19.416042 24.421659 -0.647430 -0.166381 -0.986012 -0.009864 0.875000 0.660362
19.405817 24.413559 0.334741 -0.166381 -0.986012 -0.009864 0.625000 0.660362
19.405817 24.413559 0.334741 -0.223303 -0.974694 -0.010364 0.625000 0.660362
19.416042 24.421659 -0.647430 -0.223303 -0.974694 -0.010364 0.875000 0.660362
20.193741 24.243418 -0.640800 -0.223303 -0.974694 -0.010364 0.875000 0.666773
20.183516 24.235317 0.341371 -0.223303 -0.974694 -0.010364 0.625000 0.666773
20.183516 24.235317 0.341371 -0.279470 -0.960093 -0.010828 0.625000 0.666773
20.193741 24.243418 -0.640800 -0.279470 -0.960093 -0.010828 0.875000 0.666773
20.959793 24.020361 -0.634662 -0.279470 -0.960093 -0.010828 0.875000 0.673183
20.183516 24.235317 0.341371 -0.279473 -0.960093 -0.010830 0.625000 0.666773
20.959793 24.020361 -0.634662 -0.279473 -0.960093 -0.010830 0.875000 0.673183
20.949568 24.012259 0.347510 -0.279473 -0.960093 -0.010830 0.625000 0.673183
20.949568 24.012259 0.347510 -0.334701 -0.942257 -0.011258 0.625000 0.673183
20.959793 24.020361 -0.634662 -0.334701 -0.942257 -0.011258 0.875000 0.673183
21.711617 23.753237 -0.629035 -0.334701 -0.942257 -0.011258 0.875000 0.679593
20.949568 24.012259 0.347510 -0.334701 -0.942257 -0.011257 0.625000 0.673183
21.711617 23.753237 -0.629035 -0.334701 -0.942257 -0.011257 0.875000 0.679593
21.701393 23.745134 0.353137 -0.334701 -0.942257 -0.011257 0.625000 0.679593
21.701393 23.745134 0.353137 -0.388800 -0.921248 -0.011647 0.625000 0.679593
21.711617 23.753237 -0.629035 -0.388800 -0.921248 -0.011647 0.875000 0.679593
22.446684 23.442947 -0.623938 -0.388800 -0.921248 -0.011647 0.875000 0.686003
22.436460 23.434845 0.358233 -0.388800 -0.921248 -0.011647 0.625000 0.686004
22.436460 23.434845 0.358233 -0.441591 -0.897136 -0.011997 0.625000 0.686004
22.446684 23.442947 -0.623938 -0.441591 -0.897136 -0.011997 0.875000 0.686003
23.162516 23.090538 -0.619389 -0.441591 -0.897136 -0.011997 0.875000 0.692414
22.436460 23.434845 0.358233 -0.441592 -0.897136 -0.011998 0.625000 0.686004
23.162516 23.090538 -0.619389 -0.441592 -0.897136 -0.011998 0.875000 0.692414
23.152290 23.082436 0.362782 -0.441592 -0.897136 -0.011998 0.625000 0.692414
23.152290 23.082436 0.362782 -0.492895 -0.870002 -0.012309 0.625000 0.692414
23.162516 23.090538 -0.619389 -0.492895 -0.870002 -0.012309 0.875000 0.692414
23.856701 22.697195 -0.615404 -0.492895 -0.870002 -0.012309 0.875000 0.698824
23.846476 22.689093 0.366768 -0.492895 -0.870002 -0.012309 0.625000 0.698824
23.846476 22.689093 0.366768 -0.542536 -0.839938 -0.012577 0.625000 0.698824
23.856701 22.697195 -0.615404 -0.542536 -0.839938 -0.012577 0.875000 0.698824
24.526903 22.264244 -0.611994 -0.542536 -0.839938 -0.012577 0.875000 0.705234
23.846476 22.689093 0.366768 -0.542538 -0.839937 -0.012578 0.625000 0.698824
24.526903 22.264244 -0.611994 -0.542538 -0.839937 -0.012578 0.875000 0.705234
24.516676 22.256142 0.370177 -0.542538 -0.839937 -0.012578 0.625000 0.705234
24.516676 22.256142 0.370177 -0.590355 -0.807042 -0.012805 0.625000 0.705234
24.526903 22.264244 -0.611994 -0.590355 -0.807042 -0.012805 0.875000 0.705234
25.170860 21.793142 -0.609173 -0.590355 -0.807042 -0.012805 0.875000 0.711644
25.160633 21.785040 0.372998 -0.590355 -0.807042 -0.012805 0.625000 0.711645
25.160633 21.785040 0.372998 -0.624526 -0.780897 -0.012945 0.625000 0.711645
25.170860 21.793142 -0.609173 -0.624526 -0.780897 -0.012945 0.875000 0.711644
25.810087 21.281878 -0.606732 -0.624526 -0.780897 -0.012945 0.875000 0.718055
25.160633 21.785040 0.372998 -0.624525 -0.780897 -0.012945 0.625000 0.711645
25.810087 21.281878 -0.606732 -0.624525 -0.780897 -0.012945 0.875000 0.718055
25.799858 21.273777 0.375439 -0.624525 -0.780897 -0.012945 0.625000 0.718055
25.799858 21.273777 0.375439 -0.626249 -0.779516 -0.012951 0.625000 0.718055
25.810087 21.281878 -0.606732 -0.626249 -0.779516 -0.012951 0.875000 0.718055
26.454395 20.764212 -0.604291 -0.626249 -0.779516 -0.012951 0.875000 0.724465
25.799858 21.273777 0.375439 -0.626250 -0.779515 -0.012953 0.625000 0.718055
26.454395 20.764212 -0.604291 -0.626250 -0.779515 -0.012953 0.875000 0.724465
26.444166 20.756109 0.377880 -0.626250 -0.779515 -0.012953 0.625000 0.724465
26.444166 20.756109 0.377880 -0.626251 -0.779514 -0.012953 0.625000 0.724465
26.454395 20.764212 -0.604291 -0.626251 -0.779514 -0.012953 0.875000 0.724465
27.098701 20.246544 -0.601850 -0.626251 -0.779514 -0.012953 0.875000 0.730875
26.444166 20.756109 0.377880 -0.626249 -0.779516 -0.012950 0.625000 0.724465
27.098701 20.246544 -0.601850 -0.626249 -0.779516 -0.012950 0.875000 0.730875
27.088474 20.238443 0.380321 -0.626249 -0.779516 -0.012950 0.625000 0.730875
27.088474 20.238443 0.380321 -0.626248 -0.779517 -0.012950 0.625000 0.730875
27.098701 20.246544 -0.601850 -0.626248 -0.779517 -0.012950 0.875000 0.730875
27.743011 19.728878 -0.599410 -0.626248 -0.779517 -0.012950 0.875000 0.737285
27.088474 20.238443 0.380321 -0.626250 -0.779515 -0.012953 0.625000 0.730875
27.743011 19.728878 -0.599410 -0.626250 -0.779515 -0.012953 0.875000 0.737285
27.732782 19.720776 0.382762 -0.626250 -0.779515 -0.012953 0.625000 0.737285
27.732782 19.720776 0.382762 -0.626249 -0.779516 -0.012953 0.625000 0.737285
27.743011 19.728878 -0.599410 -0.626249 -0.779516 -0.012953 0.875000 0.737285
-1.003301 22.827097 0.109096 -0.010414 -0.008247 0.999912 0.375000 0.750000
-0.168125 22.918104 0.118545 -0.010414 -0.008247 0.999912 0.381516 0.750000
-0.274605 23.894548 0.125489 -0.010414 -0.008247 0.999912 0.381516 1.000000
-1.109780 23.803543 0.116041 -0.010414 -0.008247 0.999912 0.375000 1.000000
0.653470 23.007631 0.127840 -0.010414 -0.008247 0.999912 0.387926 0.750000
0.546989 23.984076 0.134785 -0.010414 -0.008247 0.999912 0.387926 1.000000
1.475065 23.097158 0.137136 -0.010414 -0.008247 0.999912 0.394337 0.750000
1.368584 24.073603 0.144080 -0.010414 -0.008247 0.999912 0.394337 1.000000
2.296659 23.186684 0.146431 -0.010414 -0.008247 0.999912 0.400747 0.750000
2.190177 24.163130 0.153375 -0.010414 -0.008247 0.999912 0.400747 1.000000
3.118252 23.276211 0.155726 -0.010414 -0.008247 0.999912 0.407157 0.750000
3.011771 24.252657 0.162671 -0.010414 -0.008247 0.999912 0.407157 1.000000
3.939846 23.365738 0.165021 -0.010414 -0.008247 0.999912 0.413568 0.750000
3.833364 24.342182 0.171966 -0.010414 -0.008247 0.999912 0.413567 1.000000
4.761441 23.455265 0.174317 -0.010414 -0.008247 0.999912 0.419978 0.750000
4.654959 24.431709 0.181261 -0.010414 -0.008247 0.999912 0.419978 1.000000
5.583035 23.544792 0.183612 -0.010414 -0.008247 0.999912 0.426388 0.750000
5.476552 24.521236 0.190556 -0.010414 -0.008247 0.999912 0.426388 1.000000
6.404630 23.634319 0.192907 -0.010414 -0.008247 0.999912 0.432798 0.750000
6.298145 24.610764 0.199852 -0.010414 -0.008247 0.999912 0.432798 1.000000
7.226225 23.723846 0.202202 -0.010414 -0.008247 0.999912 0.439209 0.750000
7.119740 24.700291 0.209147 -0.010414 -0.008247 0.999912 0.439209 1.000000
8.047818 23.813372 0.211498 -0.010414 -0.008247 0.999912 0.445619 0.750000
7.941334 24.789818 0.218442 -0.010414 -0.008247 0.999912 0.445619 1.000000
8.869412 23.902899 0.220793 -0.010414 -0.008247 0.999912 0.452029 0.750000
8.762929 24.879343 0.227737 -0.010414 -0.008247 0.999912 0.452029 1.000000
9.691007 23.992426 0.230088 -0.010414 -0.008247 0.999912 0.458439 0.750000
9.584523 24.968870 0.237033 -0.010414 -0.008247 0.999912 0.458439 1.000000
10.512602 24.081953 0.239384 -0.010414 -0.008247 0.999912 0.464850 0.750000
10.406117 25.058397 0.246328 -0.010414 -0.008247 0.999912 0.464850 1.000000
11.334195 24.171480 0.248679 -0.010414 -0.008247 0.999912 0.471260 0.750000
11.227712 25.147924 0.255623 -0.010414 -0.008247 0.999912 0.471260 1.000000
12.155789 24.261007 0.257974 -0.010414 -0.008247 0.999912 0.477670 0.750000
12.049306 25.237452 0.264919 -0.010414 -0.008247 0.999912 0.477670 1.000000
12.977384 24.350533 0.267269 -0.010414 -0.008247 0.999912 0.484080 0.750000
12.870900 25.326979 0.274214 -0.010414 -0.008247 0.999912 0.484080 1.000000
13.798978 24.440060 0.276565 -0.010414 -0.008247 0.999912 0.490491 0.750000
13.692493 25.416504 0.283509 -0.010414 -0.008247 0.999912 0.490491 1.000000
14.620572 24.529587 0.285860 -0.010414 -0.008247 0.999912 0.496901 0.750000
14.514089 25.506031 0.292804 -0.010414 -0.008247 0.999912 0.496901 1.000000
15.435199 24.616882 0.295064 -0.010414 -0.008247 0.999912 0.503311 0.750000
15.342964 25.594776 0.302169 -0.010414 -0.008247 0.999912 0.503311 1.000000
16.231359 24.668652 0.303783 -0.010414 -0.008247 0.999912 0.509721 0.750000
16.196009 25.650244 0.311511 -0.010414 -0.008247 0.999912 0.509721 1.000000
17.029186 24.674145 0.312138 -0.010414 -0.008247 0.999912 0.516132 0.750000
17.050840 25.656128 0.320462 -0.010414 -0.008247 0.999912 0.516132 1.000000
17.825993 24.633343 0.320100 -0.010414 -0.008247 0.999912 0.522542 0.750000
17.904577 25.612411 0.328994 -0.010414 -0.008247 0.999912 0.522542 1.000000
18.619093 24.546383 0.327643 -0.010414 -0.008247 0.999912 0.528952 0.750000
18.754345 25.519239 0.337075 -0.010414 -0.008247 0.999912 0.528952 1.000000
19.405817 24.413559 0.334741 -0.010414 -0.008247 0.999912 0.535362 0.750000
19.597279 25.376925 0.344681 -0.010414 -0.008247 0.999912 0.535362 1.000000
20.183516 24.235317 0.341371 -0.010414 -0.008247 0.999912 0.541773 0.750000
20.430542 25.185947 0.351784 -0.010414 -0.008247 0.999912 0.541773 1.000000
20.949568 24.012259 0.347510 -0.010414 -0.008247 0.999912 0.548183 0.750000
21.251328 24.946953 0.358361 -0.010414 -0.008247 0.999912 0.548183 1.000000
21.701393 23.745134 0.353137 -0.010414 -0.008247 0.999912 0.554593 0.750000
22.056870 24.660744 0.364390 -0.010414 -0.008247 0.999912 0.554593 1.000000
22.436460 23.434845 0.358233 -0.010414 -0.008247 0.999912 0.561003 0.750000
22.844456 24.328283 0.369851 -0.010414 -0.008247 0.999912 0.561003 1.000000
23.152290 23.082436 0.362782 -0.010414 -0.008247 0.999912 0.567414 0.750000
23.611431 23.950695 0.374725 -0.010414 -0.008247 0.999912 0.567414 1.000000
23.846476 22.689093 0.366768 -0.010414 -0.008247 0.999912 0.573824 0.750000
24.355217 23.529247 0.378996 -0.010414 -0.008247 0.999912 0.573824 1.000000
24.516676 22.256142 0.370177 -0.010414 -0.008247 0.999912 0.580234 0.750000
25.073303 23.065363 0.382648 -0.010414 -0.008247 0.999912 0.580234 1.000000
25.160633 21.785040 0.372998 -0.010414 -0.008247 0.999912 0.586644 0.750000
25.763273 22.560602 0.385671 -0.010414 -0.008247 0.999912 0.586644 1.000000
25.799858 21.273777 0.375439 -0.010414 -0.008247 0.999912 0.593055 0.750000
26.414995 22.039463 0.388161 -0.010414 -0.008247 0.999912 0.593055 1.000000
26.444166 20.756109 0.377880 -0.010414 -0.008247 0.999912 0.599465 0.750000
27.059303 21.521795 0.390602 -0.010414 -0.008247 0.999912 0.599465 1.000000
27.088474 20.238443 0.380321 -0.010414 -0.008247 0.999912 0.605875 0.750000
27.703611 21.004129 0.393043 -0.010414 -0.008247 0.999912 0.605875 1.000000
27.732782 19.720776 0.382762 -0.010414 -0.008247 0.999912 0.612285 0.750000
28.347919 20.486462 0.395483 -0.010414 -0.008247 0.999912 0.612285 1.000000
29.625885 19.459686 0.400325 0.626249 0.779515 0.012950 0.375000 0.250000
29.636114 19.467785 -0.581846 0.626249 0.779515 0.012950 0.625000 0.250000
29.002457 19.976894 -0.584247 0.626249 0.779515 0.012950 0.625000 0.256304
28.992229 19.968794 0.397924 0.626249 0.779515 0.012950 0.375000 0.256304
28.992229 19.968794 0.397924 0.626250 0.779515 0.012950 0.375000 0.256304
29.002457 19.976894 -0.584247 0.626250 0.779515 0.012950 0.625000 0.256304
28.358150 20.494560 -0.586688 0.626250 0.779515 0.012950 0.625000 0.262715
28.992229 19.968794 0.397924 0.626249 0.779516 0.012951 0.375000 0.256304
28.358150 20.494560 -0.586688 0.626249 0.779516 0.012951 0.625000 0.262715
28.347919 20.486462 0.395483 0.626249 0.779516 0.012951 0.375000 0.262715
28.347919 20.486462 0.395483 0.626250 0.779515 0.012951 0.375000 0.262715
28.358150 20.494560 -0.586688 0.626250 0.779515 0.012951 0.625000 0.262715
27.713842 21.012228 -0.589129 0.626250 0.779515 0.012951 0.625000 0.269125
27.703611 21.004129 0.393043 0.626250 0.779515 0.012951 0.375000 0.269125
27.069534 21.529896 -0.591570 0.626250 0.779515 0.012951 0.625000 0.275535
27.703611 21.004129 0.393043 0.626249 0.779516 0.012953 0.375000 0.269125
27.069534 21.529896 -0.591570 0.626249 0.779516 0.012953 0.625000 0.275535
27.059303 21.521795 0.390602 0.626249 0.779516 0.012953 0.375000 0.275535
27.059303 21.521795 0.390602 0.626248 0.779517 0.012953 0.375000 0.275535
27.069534 21.529896 -0.591570 0.626248 0.779517 0.012953 0.625000 0.275535
26.425224 22.047562 -0.594010 0.626248 0.779517 0.012953 0.625000 0.281945
27.059303 21.521795 0.390602 0.626250 0.779515 0.012950 0.375000 0.275535
26.425224 22.047562 -0.594010 0.626250 0.779515 0.012950 0.625000 0.281945
26.414995 22.039463 0.388161 0.626250 0.779515 0.012950 0.375000 0.281945
26.414995 22.039463 0.388161 0.624438 0.780967 0.012943 0.375000 0.281945
26.425224 22.047562 -0.594010 0.624438 0.780967 0.012943 0.625000 0.281945
25.773502 22.568701 -0.596500 0.624438 0.780967 0.012943 0.625000 0.288356
25.763273 22.560602 0.385671 0.624438 0.780967 0.012943 0.375000 0.288356
25.763273 22.560602 0.385671 0.590353 0.807043 0.012803 0.375000 0.288356
25.773502 22.568701 -0.596500 0.590353 0.807043 0.012803 0.625000 0.288356
25.083534 23.073462 -0.599523 0.590353 0.807043 0.012803 0.625000 0.294766
25.763273 22.560602 0.385671 0.590352 0.807044 0.012804 0.375000 0.288356
25.083534 23.073462 -0.599523 0.590352 0.807044 0.012804 0.625000 0.294766
25.073303 23.065363 0.382648 0.590352 0.807044 0.012804 0.375000 0.294766
25.073303 23.065363 0.382648 0.542539 0.839936 0.012577 0.375000 0.294766
25.083534 23.073462 -0.599523 0.542539 0.839936 0.012577 0.625000 0.294766
24.365450 23.537348 -0.603176 0.542539 0.839936 0.012577 0.625000 0.301176
25.073303 23.065363 0.382648 0.542537 0.839938 0.012580 0.375000 0.294766
24.365450 23.537348 -0.603176 0.542537 0.839938 0.012580 0.625000 0.301176
24.355217 23.529247 0.378996 0.542537 0.839938 0.012580 0.375000 0.301176
24.355217 23.529247 0.378996 0.492894 0.870003 0.012311 0.375000 0.301176
24.365450 23.537348 -0.603176 0.492894 0.870003 0.012311 0.625000 0.301176
23.621666 23.958794 -0.607446 0.492894 0.870003 0.012311 0.625000 0.307586
24.355217 23.529247 0.378996 0.492894 0.870002 0.012310 0.375000 0.301176
23.621666 23.958794 -0.607446 0.492894 0.870002 0.012310 0.625000 0.307586
23.611431 23.950695 0.374725 0.492894 0.870002 0.012310 0.375000 0.307586
23.611431 23.950695 0.374725 0.441593 0.897135 0.011999 0.375000 0.307586
23.621666 23.958794 -0.607446 0.441593 0.897135 0.011999 0.625000 0.307586
22.854691 24.336384 -0.612320 0.441593 0.897135 0.011999 0.625000 0.313997
23.611431 23.950695 0.374725 0.441591 0.897136 0.012001 0.375000 0.307586
22.854691 24.336384 -0.612320 0.441591 0.897136 0.012001 0.625000 0.313997
22.844456 24.328283 0.369851 0.441591 0.897136 0.012001 0.375000 0.313997
22.844456 24.328283 0.369851 0.388800 0.921249 0.011650 0.375000 0.313997
22.854691 24.336384 -0.612320 0.388800 0.921249 0.011650 0.625000 0.313997
22.067104 24.668842 -0.617781 0.388800 0.921249 0.011650 0.625000 0.320407
22.844456 24.328283 0.369851 0.388802 0.921248 0.011648 0.375000 0.313997
22.067104 24.668842 -0.617781 0.388802 0.921248 0.011648 0.625000 0.320407
22.056870 24.660744 0.364390 0.388802 0.921248 0.011648 0.375000 0.320407
22.056870 24.660744 0.364390 0.334700 0.942258 0.011257 0.375000 0.320407
22.067104 24.668842 -0.617781 0.334700 0.942258 0.011257 0.625000 0.320407
21.261562 24.955051 -0.623810 0.334700 0.942258 0.011257 0.625000 0.326817
21.251328 24.946953 0.358361 0.334700 0.942258 0.011257 0.375000 0.326817
21.251328 24.946953 0.358361 0.279473 0.960092 0.010829 0.375000 0.326817
21.261562 24.955051 -0.623810 0.279473 0.960092 0.010829 0.625000 0.326817
20.440777 25.194048 -0.630387 0.279473 0.960092 0.010829 0.625000 0.333227
21.251328 24.946953 0.358361 0.279471 0.960093 0.010831 0.375000 0.326817
20.440777 25.194048 -0.630387 0.279471 0.960093 0.010831 0.625000 0.333227
20.430542 25.185947 0.351784 0.279471 0.960093 0.010831 0.375000 0.333227
20.430542 25.185947 0.351784 0.223303 0.974694 0.010366 0.375000 0.333227
20.440777 25.194048 -0.630387 0.223303 0.974694 0.010366 0.625000 0.333227
19.607513 25.385025 -0.637490 0.223303 0.974694 0.010366 0.625000 0.339638
19.597279 25.376925 0.344681 0.223303 0.974694 0.010366 0.375000 0.339638
19.597279 25.376925 0.344681 0.166380 0.986012 0.009866 0.375000 0.339638
19.607513 25.385025 -0.637490 0.166380 0.986012 0.009866 0.625000 0.339638
18.764578 25.527338 -0.645096 0.166380 0.986012 0.009866 0.625000 0.346048
19.597279 25.376925 0.344681 0.166382 0.986012 0.009864 0.375000 0.339638
18.764578 25.527338 -0.645096 0.166382 0.986012 0.009864 0.625000 0.346048
18.754345 25.519239 0.337075 0.166382 0.986012 0.009864 0.375000 0.346048
18.754345 25.519239 0.337075 0.108901 0.994009 0.009331 0.375000 0.346048
18.764578 25.527338 -0.645096 0.108901 0.994009 0.009331 0.625000 0.346048
17.914810 25.620512 -0.653178 0.108901 0.994009 0.009331 0.625000 0.352458
18.754345 25.519239 0.337075 0.108899 0.994009 0.009333 0.375000 0.346048
17.914810 25.620512 -0.653178 0.108899 0.994009 0.009333 0.625000 0.352458
17.904577 25.612411 0.328994 0.108899 0.994009 0.009333 0.375000 0.352458
17.904577 25.612411 0.328994 0.051050 0.998658 0.008768 0.375000 0.352458
17.914810 25.620512 -0.653178 0.051050 0.998658 0.008768 0.625000 0.352458
17.061075 25.664228 -0.661709 0.051050 0.998658 0.008768 0.625000 0.358868
17.050840 25.656128 0.320462 0.051050 0.998658 0.008768 0.375000 0.358868
17.050840 25.656128 0.320462 -0.006969 0.999942 0.008174 0.375000 0.358868
17.061075 25.664228 -0.661709 -0.006969 0.999942 0.008174 0.625000 0.358868
16.206244 25.658344 -0.670660 -0.006969 0.999942 0.008174 0.625000 0.365279
16.196009 25.650244 0.311511 -0.006969 0.999942 0.008174 0.375000 0.365279
16.196009 25.650244 0.311511 -0.064967 0.997859 0.007553 0.375000 0.365279
16.206244 25.658344 -0.670660 -0.064967 0.997859 0.007553 0.625000 0.365279
15.353199 25.602877 -0.680002 -0.064967 0.997859 0.007553 0.625000 0.371689
15.342964 25.594776 0.302169 -0.064967 0.997859 0.007553 0.375000 0.371689
15.342964 25.594776 0.302169 -0.106533 0.994284 0.007090 0.375000 0.371689
15.353199 25.602877 -0.680002 -0.106533 0.994284 0.007090 0.625000 0.371689
14.524323 25.514133 -0.689367 -0.106533 0.994284 0.007090 0.625000 0.378099
15.342964 25.594776 0.302169 -0.106535 0.994284 0.007092 0.375000 0.371689
14.524323 25.514133 -0.689367 -0.106535 0.994284 0.007092 0.625000 0.378099
14.514089 25.506031 0.292804 -0.106535 0.994284 0.007092 0.375000 0.378099
14.514089 25.506031 0.292804 -0.108403 0.994082 0.007071 0.375000 0.378099
14.524323 25.514133 -0.689367 -0.108403 0.994082 0.007071 0.625000 0.378099
13.702728 25.424606 -0.698662 -0.108403 0.994082 0.007071 0.625000 0.384509
13.692493 25.416504 0.283509 -0.108403 0.994082 0.007071 0.375000 0.384509
12.881134 25.335079 -0.707957 -0.108403 0.994082 0.007071 0.625000 0.390920
13.692493 25.416504 0.283509 -0.108401 0.994082 0.007069 0.375000 0.384509
12.881134 25.335079 -0.707957 -0.108401 0.994082 0.007069 0.625000 0.390920
12.870900 25.326979 0.274214 -0.108401 0.994082 0.007069 0.375000 0.390920
12.870900 25.326979 0.274214 -0.108403 0.994082 0.007069 0.375000 0.390920
12.881134 25.335079 -0.707957 -0.108403 0.994082 0.007069 0.625000 0.390920
12.059540 25.245552 -0.717253 -0.108403 0.994082 0.007069 0.625000 0.397330
12.049306 25.237452 0.264919 -0.108403 0.994082 0.007069 0.375000 0.397330
11.237946 25.156025 -0.726548 -0.108403 0.994082 0.007069 0.625000 0.403740
11.227712 25.147924 0.255623 -0.108403 0.994082 0.007069 0.375000 0.403740
10.416351 25.066498 -0.735843 -0.108403 0.994082 0.007069 0.625000 0.410150
10.406117 25.058397 0.246328 -0.108403 0.994082 0.007069 0.375000 0.410150
10.406117 25.058397 0.246328 -0.108400 0.994082 0.007069 0.375000 0.410150
10.416351 25.066498 -0.735843 -0.108400 0.994082 0.007069 0.625000 0.410150
9.594757 24.976973 -0.745138 -0.108400 0.994082 0.007069 0.625000 0.416561
10.406117 25.058397 0.246328 -0.108403 0.994082 0.007071 0.375000 0.410150
9.594757 24.976973 -0.745138 -0.108403 0.994082 0.007071 0.625000 0.416561
9.584523 24.968870 0.237033 -0.108403 0.994082 0.007071 0.375000 0.416561
8.773163 24.887445 -0.754434 -0.108403 0.994082 0.007071 0.625000 0.422971
8.762929 24.879343 0.227737 -0.108403 0.994082 0.007071 0.375000 0.422971
7.951568 24.797918 -0.763729 -0.108403 0.994082 0.007071 0.625000 0.429381
8.762929 24.879343 0.227737 -0.108400 0.994082 0.007069 0.375000 0.422971
7.951568 24.797918 -0.763729 -0.108400 0.994082 0.007069 0.625000 0.429381
7.941334 24.789818 0.218442 -0.108400 0.994082 0.007069 0.375000 0.429381
7.941334 24.789818 0.218442 -0.108403 0.994082 0.007069 0.375000 0.429381
7.951568 24.797918 -0.763729 -0.108403 0.994082 0.007069 0.625000 0.429381
7.129975 24.708391 -0.773024 -0.108403 0.994082 0.007069 0.625000 0.435791
7.119740 24.700291 0.209147 -0.108403 0.994082 0.007069 0.375000 0.435791
7.119740 24.700291 0.209147 -0.108402 0.994082 0.007069 0.375000 0.435791
7.129975 24.708391 -0.773024 -0.108402 0.994082 0.007069 0.625000 0.435791
6.308379 24.618864 -0.782320 -0.108402 0.994082 0.007069 0.625000 0.442202
6.308379 24.618864 -0.782320 -0.108403 0.994082 0.007069 0.625000 0.442202
6.298145 24.610764 0.199852 -0.108403 0.994082 0.007069 0.375000 0.442202
5.486785 24.529337 -0.791615 -0.108403 0.994082 0.007069 0.625000 0.448612
5.476552 24.521236 0.190556 -0.108403 0.994082 0.007069 0.375000 0.448612
5.476552 24.521236 0.190556 -0.108401 0.994082 0.007069 0.375000 0.448612
5.486785 24.529337 -0.791615 -0.108401 0.994082 0.007069 0.625000 0.448612
4.665192 24.439812 -0.800910 -0.108401 0.994082 0.007069 0.625000 0.455022
5.476552 24.521236 0.190556 -0.108403 0.994082 0.007071 0.375000 0.448612
4.665192 24.439812 -0.800910 -0.108403 0.994082 0.007071 0.625000 0.455022
4.654959 24.431709 0.181261 -0.108403 0.994082 0.007071 0.375000 0.455022
3.843596 24.350285 -0.810205 -0.108403 0.994082 0.007071 0.625000 0.461432
3.833364 24.342182 0.171966 -0.108403 0.994082 0.007071 0.375000 0.461432
3.022002 24.260757 -0.819501 -0.108403 0.994082 0.007071 0.625000 0.467843
3.833364 24.342182 0.171966 -0.108401 0.994082 0.007070 0.375000 0.461432
3.022002 24.260757 -0.819501 -0.108401 0.994082 0.007070 0.625000 0.467843
3.011771 24.252657 0.162671 -0.108401 0.994082 0.007070 0.375000 0.467843
3.011771 24.252657 0.162671 -0.108403 0.994082 0.007070 0.375000 0.467843
3.022002 24.260757 -0.819501 -0.108403 0.994082 0.007070 0.625000 0.467843
2.200408 24.171230 -0.828796 -0.108403 0.994082 0.007070 0.625000 0.474253
2.190177 24.163130 0.153375 -0.108403 0.994082 0.007070 0.375000 0.474253
1.378815 24.081703 -0.838091 -0.108403 0.994082 0.007070 0.625000 0.480663
1.368584 24.073603 0.144080 -0.108403 0.994082 0.007070 0.375000 0.480663
0.557220 23.992176 -0.847386 -0.108403 0.994082 0.007070 0.625000 0.487074
0.546989 23.984076 0.134785 -0.108403 0.994082 0.007070 0.375000 0.487074
0.546989 23.984076 0.134785 -0.108400 0.994082 0.007070 0.375000 0.487074
0.557220 23.992176 -0.847386 -0.108400 0.994082 0.007070 0.625000 0.487074
-0.264376 23.902651 -0.856682 -0.108400 0.994082 0.007070 0.625000 0.493484
0.546989 23.984076 0.134785 -0.108403 0.994082 0.007072 0.375000 0.487074
29.020977 18.702103 -0.594568 0.010414 0.008247 -0.999912 0.375000 0.000000
28.387321 19.211210 -0.596969 0.010414 0.008247 -0.999912 0.381304 0.000000
29.002457 19.976894 -0.584247 0.010414 0.008247 -0.999912 0.381304 0.250000
29.636114 19.467785 -0.581846 0.010414 0.008247 -0.999912 0.375000 0.250000
27.743011 19.728878 -0.599410 0.010414 0.008247 -0.999912 0.387715 0.000000
28.358150 20.494560 -0.586688 0.010414 0.008247 -0.999912 0.387715 0.250000
27.098701 20.246544 -0.601850 0.010414 0.008247 -0.999912 0.394125 0.000000
27.713842 21.012228 -0.589129 0.010414 0.008247 -0.999912 0.394125 0.250000
26.454395 20.764212 -0.604291 0.010414 0.008247 -0.999912 0.400535 0.000000
27.069534 21.529896 -0.591570 0.010414 0.008247 -0.999912 0.400535 0.250000
25.810087 21.281878 -0.606732 0.010414 0.008247 -0.999912 0.406945 0.000000
26.425224 22.047562 -0.594010 0.010414 0.008247 -0.999912 0.406945 0.250000
25.170860 21.793142 -0.609173 0.010414 0.008247 -0.999912 0.413356 0.000000
25.773502 22.568701 -0.596500 0.010414 0.008247 -0.999912 0.413355 0.250000
24.526903 22.264244 -0.611994 0.010414 0.008247 -0.999912 0.419766 0.000000
25.083534 23.073462 -0.599523 0.010414 0.008247 -0.999912 0.419766 0.250000
23.856701 22.697195 -0.615404 0.010414 0.008247 -0.999912 0.426176 0.000000
24.365450 23.537348 -0.603176 0.010414 0.008247 -0.999912 0.426176 0.250000
23.162516 23.090538 -0.619389 0.010414 0.008247 -0.999912 0.432586 0.000000
23.621666 23.958794 -0.607446 0.010414 0.008247 -0.999912 0.432586 0.250000
22.446684 23.442947 -0.623938 0.010414 0.008247 -0.999912 0.438997 0.000000
22.854691 24.336384 -0.612320 0.010414 0.008247 -0.999912 0.438997 0.250000
21.711617 23.753237 -0.629035 0.010414 0.008247 -0.999912 0.445407 0.000000
22.067104 24.668842 -0.617781 0.010414 0.008247 -0.999912 0.445407 0.250000
20.959793 24.020361 -0.634662 0.010414 0.008247 -0.999912 0.451817 0.000000
21.261562 24.955051 -0.623810 0.010414 0.008247 -0.999912 0.451817 0.250000
20.193741 24.243418 -0.640800 0.010414 0.008247 -0.999912 0.458227 0.000000
20.440777 25.194048 -0.630387 0.010414 0.008247 -0.999912 0.458227 0.250000
19.416042 24.421659 -0.647430 0.010414 0.008247 -0.999912 0.464638 0.000000
19.607513 25.385025 -0.637490 0.010414 0.008247 -0.999912 0.464638 0.250000
18.629318 24.554483 -0.654528 0.010414 0.008247 -0.999912 0.471048 0.000000
18.764578 25.527338 -0.645096 0.010414 0.008247 -0.999912 0.471048 0.250000
17.836216 24.641443 -0.662071 0.010414 0.008247 -0.999912 0.477458 0.000000
17.914810 25.620512 -0.653178 0.010414 0.008247 -0.999912 0.477458 0.250000
17.039412 24.682245 -0.670033 0.010414 0.008247 -0.999912 0.483868 0.000000
17.061075 25.664228 -0.661709 0.010414 0.008247 -0.999912 0.483868 0.250000
16.241583 24.676754 -0.678388 0.010414 0.008247 -0.999912 0.490279 0.000000
16.206244 25.658344 -0.670660 0.010414 0.008247 -0.999912 0.490279 0.250000
15.445423 24.624985 -0.687107 0.010414 0.008247 -0.999912 0.496689 0.000000
15.353199 25.602877 -0.680002 0.010414 0.008247 -0.999912 0.496689 0.250000
14.630796 24.537687 -0.696311 0.010414 0.008247 -0.999912 0.503099 0.000000
14.524323 25.514133 -0.689367 0.010414 0.008247 -0.999912 0.503099 0.250000
13.809202 24.448160 -0.705607 0.010414 0.008247 -0.999912 0.509509 0.000000
13.702728 25.424606 -0.698662 0.010414 0.008247 -0.999912 0.509509 0.250000
12.987608 24.358633 -0.714902 0.010414 0.008247 -0.999912 0.515920 0.000000
12.881134 25.335079 -0.707957 0.010414 0.008247 -0.999912 0.515920 0.250000
12.166014 24.269106 -0.724197 0.010414 0.008247 -0.999912 0.522330 0.000000
12.059540 25.245552 -0.717253 0.010414 0.008247 -0.999912 0.522330 0.250000
11.344419 24.179581 -0.733492 0.010414 0.008247 -0.999912 0.528740 0.000000
11.237946 25.156025 -0.726548 0.010414 0.008247 -0.999912 0.528740 0.250000
10.522825 24.090054 -0.742788 0.010414 0.008247 -0.999912 0.535150 0.000000
10.416351 25.066498 -0.735843 0.010414 0.008247 -0.999912 0.535150 0.250000
9.701231 24.000526 -0.752083 0.010414 0.008247 -0.999912 0.541561 0.000000
9.594757 24.976973 -0.745138 0.010414 0.008247 -0.999912 0.541561 0.250000
8.879637 23.910999 -0.761378 0.010414 0.008247 -0.999912 0.547971 0.000000
8.773163 24.887445 -0.754434 0.010414 0.008247 -0.999912 0.547971 0.250000
8.058043 23.821472 -0.770674 0.010414 0.008247 -0.999912 0.554381 0.000000
7.951568 24.797918 -0.763729 0.010414 0.008247 -0.999912 0.554381 0.250000
7.236448 23.731945 -0.779969 0.010414 0.008247 -0.999912 0.560791 0.000000
7.129975 24.708391 -0.773024 0.010414 0.008247 -0.999912 0.560791 0.250000
6.414854 23.642420 -0.789264 0.010414 0.008247 -0.999912 0.567202 0.000000
6.308379 24.618864 -0.782320 0.010414 0.008247 -0.999912 0.567202 0.250000
5.593261 23.552893 -0.798559 0.010414 0.008247 -0.999912 0.573612 0.000000
5.486785 24.529337 -0.791615 0.010414 0.008247 -0.999912 0.573612 0.250000
4.771667 23.463366 -0.807855 0.010414 0.008247 -0.999912 0.580022 0.000000
4.665192 24.439812 -0.800910 0.010414 0.008247 -0.999912 0.580022 0.250000
3.950072 23.373838 -0.817150 0.010414 0.008247 -0.999912 0.586433 0.000000
3.843596 24.350285 -0.810205 0.010414 0.008247 -0.999912 0.586432 0.250000
3.128479 23.284311 -0.826445 0.010414 0.008247 -0.999912 0.592843 0.000000
3.022002 24.260757 -0.819501 0.010414 0.008247 -0.999912 0.592843 0.250000
2.306886 23.194786 -0.835740 0.010414 0.008247 -0.999912 0.599253 0.000000
2.200408 24.171230 -0.828796 0.010414 0.008247 -0.999912 0.599253 0.250000
1.485292 23.105259 -0.845036 0.010414 0.008247 -0.999912 0.605663 0.000000
1.378815 24.081703 -0.838091 0.010414 0.008247 -0.999912 0.605663 0.250000
0.663698 23.015732 -0.854331 0.010414 0.008247 -0.999912 0.612074 0.000000
0.557220 23.992176 -0.847386 0.010414 0.008247 -0.999912 0.612073 0.250000
3 0 1 2
3 0 2 3
3 4 5 6
3 7 8 9
3 10 11 12
3 13 14 15
3 16 17 18
3 16 18 19
3 20 21 22
3 23 24 25
3 26 27 28
3 29 30 31
3 32 33 34
3 32 34 35
3 35 34 36
3 35 36 37
3 37 36 38
3 37 38 39
3 39 38 40
3 41 42 43
3 43 42 44
3 45 46 47
3 47 46 48
3 47 48 49
3 49 48 50
3 49 50 51
3 51 50 52
3 51 52 53
3 53 52 54
3 53 54 55
3 56 57 58
3 59 60 61
3 61 60 62
3 63 64 65
3 66 67 68
3 66 68 69
3 69 68 70
3 69 70 71
3 71 70 72
3 71 72 73
3 73 72 74
3 73 74 75
3 76 77 78
3 79 80 81
3 81 80 82
3 83 84 85
3 86 87 88
3 86 88 89
3 89 88 90
3 89 90 91
3 92 93 94
3 95 96 97
3 98 99 100
3 98 100 101
3 102 103 104
3 105 106 107
3 108 109 110
3 108 110 111
3 112 113 114
3 112 114 115
3 116 117 118
3 116 118 119
3 120 121 122
3 120 122 123
3 124 125 126
3 127 128 129
3 130 131 132
3 133 134 135
3 136 137 138
3 136 138 139
3 140 141 142
3 143 144 145
3 146 147 148
3 146 148 149
3 150 151 152
3 153 154 155
3 156 157 158
3 156 158 159
3 160 161 162
3 163 164 165
3 166 167 168
3 169 170 171
3 172 173 174
3 175 176 177
3 178 179 180
3 181 182 183
3 184 185 27
3 184 27 26
3 186 187 188
3 186 188 189
3 187 190 191
3 187 191 188
3 190 192 193
3 190 193 191
3 192 194 195
3 192 195 193
3 194 196 197
3 194 197 195
3 196 198 199
3 196 199 197
3 198 200 201
3 198 201 199
3 200 202 203
3 200 203 201
3 202 204 205
3 202 205 203
3 204 206 207
3 204 207 205
3 206 208 209
3 206 209 207
3 208 210 211
3 208 211 209
3 210 212 213
3 210 213 211
3 212 214 215
3 212 215 213
3 214 216 217
3 214 217 215
3 216 218 219
3 216 219 217
3 218 220 221
3 218 221 219
3 220 222 223
3 220 223 221
3 222 224 225
3 222 225 223
3 224 226 227
3 224 227 225
3 226 228 229
3 226 229 227
3 228 230 231
3 228 231 229
3 230 232 233
3 230 233 231
3 232 234 235
3 232 235 233
3 234 236 237
3 234 237 235
3 236 238 239
3 236 239 237
3 238 240 241
3 238 241 239
3 240 242 243
3 240 243 241
3 242 244 245
3 242 245 243
3 244 246 247
3 244 247 245
3 246 248 249
3 246 249 247
3 248 250 251
3 248 251 249
3 250 252 253
3 250 253 251
3 252 254 255
3 252 255 253
3 254 256 257
3 254 257 255
3 256 258 259
3 256 259 257
3 258 260 261
3 258 261 259
3 260 16 19
3 260 19 261
3 262 263 264
3 262 264 265
3 266 267 268
3 269 270 271
3 272 273 274
3 272 274 275
3 275 274 276
3 277 278 279
3 280 281 282
3 283 284 285
3 286 287 288
3 286 288 289
3 290 291 292
3 293 294 295
3 296 297 298
3 299 300 301
3 302 303 304
3 305 306 307
3 308 309 310
3 311 312 313
3 314 315 316
3 317 318 319
3 320 321 322
3 320 322 323
3 324 325 326
3 327 328 329
3 330 331 332
3 330 332 333
3 334 335 336
3 337 338 339
3 340 341 342
3 343 344 345
3 346 347 348
3 346 348 349
3 350 351 352
3 350 352 353
3 354 355 356
3 354 356 357
3 358 359 360
3 361 362 363
3 364 365 366
3 364 366 367
3 367 366 368
3 369 370 371
3 372 373 374
3 372 374 375
3 375 374 376
3 375 376 377
3 377 376 378
3 377 378 379
3 380 381 382
3 383 384 385
3 385 384 386
3 385 386 387
3 387 386 388
3 389 390 391
3 392 393 394
3 392 394 395
3 396 397 398
3 395 399 400
3 400 399 401
3 400 401 402
3 403 404 405
3 406 407 408
3 408 407 409
3 408 409 410
3 410 409 411
3 412 413 414
3 415 416 417
3 415 417 418
3 418 417 419
3 418 419 420
3 420 419 421
3 420 421 422
3 423 424 425
3 426 5 4
3 427 428 429
3 427 429 430
3 428 431 432
3 428 432 429
3 431 433 434
3 431 434 432
3 433 435 436
3 433 436 434
3 435 437 438
3 435 438 436
3 437 439 440
3 437 440 438
3 439 441 442
3 439 442 440
3 441 443 444
3 441 444 442
3 443 445 446
3 443 446 444
3 445 447 448
3 445 448 446
3 447 449 450
3 447 450 448
3 449 451 452
3 449 452 450
3 451 453 454
3 451 454 452
3 453 455 456
3 453 456 454
3 455 457 458
3 455 458 456
3 457 459 460
3 457 460 458
3 459 461 462
3 459 462 460
3 461 463 464
3 461 464 462
3 463 465 466
3 463 466 464
3 465 467 468
3 465 468 466
3 467 469 470
3 467 470 468
3 469 471 472
3 469 472 470
3 471 473 474
3 471 474 472
3 473 475 476
3 473 476 474
3 475 477 478
3 475 478 476
3 477 479 480
3 477 480 478
3 479 481 482
3 479 482 480
3 481 483 484
3 481 484 482
3 483 485 486
3 483 486 484
3 485 487 488
3 485 488 486
3 487 489 490
3 487 490 488
3 489 491 492
3 489 492 490
3 491 493 494
3 491 494 492
3 493 495 496
3 493 496 494
3 495 497 498
3 495 498 496
3 497 499 500
3 497 500 498
3 499 501 502
3 499 502 500
3 501 0 3
3 501 3 502
